<svg width="24" height="14" viewBox="0 0 24 14" fill="none" xmlns="http://www.w3.org/2000/svg">
<path d="M6.857 0C5.03906 0.00211727 3.29619 0.725229 2.01071 2.01071C0.725229 3.29619 0.00211727 5.03906 0 6.857C0.0018531 8.67502 0.72488 10.418 2.01042 11.7036C3.29595 12.9891 5.03898 13.7121 6.857 13.714H17.144C18.9619 13.7121 20.7049 12.9891 21.9902 11.7035C23.2756 10.418 23.9984 8.67493 24 6.857C24 3.076 20.925 0 17.144 0H6.857ZM6.857 2.744H17.144C18.2345 2.74506 19.2801 3.17873 20.0512 3.94984C20.8223 4.72095 21.2559 5.76649 21.257 6.857C21.2562 7.94787 20.8227 8.99387 20.0516 9.76551C19.2806 10.5372 18.2349 10.9714 17.144 10.973H6.857C5.76604 10.9714 4.72025 10.5372 3.94901 9.76558C3.17777 8.99396 2.74406 7.94796 2.743 6.857C2.74432 5.7664 3.17822 4.72086 3.94949 3.94978C4.72075 3.1787 5.7664 2.74506 6.857 2.744ZM17.025 5.473C16.8431 5.4732 16.6631 5.50922 16.4951 5.579C16.3271 5.64879 16.1746 5.75097 16.0461 5.87972C15.9176 6.00847 15.8158 6.16126 15.7464 6.32937C15.6769 6.49748 15.6413 6.67762 15.6415 6.8595C15.6417 7.04138 15.6777 7.22144 15.7475 7.3894C15.8173 7.55736 15.9195 7.70993 16.0482 7.8384C16.177 7.96687 16.3298 8.06873 16.4979 8.13815C16.666 8.20757 16.8461 8.2432 17.028 8.243C17.3953 8.2426 17.7474 8.0963 18.0069 7.83628C18.2664 7.57626 18.4119 7.22382 18.4115 6.8565C18.4111 6.48918 18.2648 6.13705 18.0048 5.8776C17.7448 5.61814 17.3923 5.4726 17.025 5.473ZM6.859 5.473C6.49154 5.4726 6.13898 5.61819 5.87886 5.87774C5.61875 6.13729 5.4724 6.48954 5.472 6.857C5.4716 7.22446 5.61719 7.57702 5.87674 7.83714C6.13629 8.09725 6.48854 8.2436 6.856 8.244C7.03788 8.2442 7.21802 8.20857 7.38613 8.13915C7.55424 8.06973 7.70703 7.96787 7.83578 7.8394C7.96453 7.71093 8.06671 7.55836 8.1365 7.3904C8.20628 7.22244 8.2423 7.04238 8.2425 6.8605C8.2427 6.67862 8.20707 6.49848 8.13765 6.33037C8.06823 6.16226 7.96637 6.00947 7.8379 5.88072C7.70943 5.75197 7.55686 5.64979 7.3889 5.58C7.22094 5.51022 7.04088 5.4732 6.859 5.473Z" fill="white"/>
</svg>
