<svg width="14" height="13" fill="none" xmlns="http://www.w3.org/2000/svg"><path d="M1.96.165a.562.562 0 00-.795.795L3.58 3.375H1.562a.562.562 0 100 1.125h3.375a.562.562 0 00.563-.563V.563a.562.562 0 10-1.125 0V2.58L1.96.165zm7.665.397a.562.562 0 10-1.125 0v3.375c0 .311.252.563.562.563h3.376a.562.562 0 100-1.125H10.42L12.835.96a.563.563 0 00-.795-.795L9.625 2.58V.562zM1.96 11.835L4.375 9.42v2.018a.562.562 0 101.125 0V8.062a.563.563 0 00-.563-.562H1.562a.562.562 0 100 1.125H3.58L1.165 11.04a.563.563 0 10.795.795zM9.625 9.42l2.415 2.415a.561.561 0 10.795-.795L10.42 8.625h2.018a.562.562 0 100-1.125H9.062a.562.562 0 00-.562.563v3.374a.562.562 0 101.125 0V9.42z" fill="#9E9E9E"/></svg>