<svg width="21" height="16" viewBox="0 0 21 16" fill="none" xmlns="http://www.w3.org/2000/svg">
<rect width="21" height="16" fill="#1E1E1E"/>
<g id="Rewards">
<g clip-path="url(#clip0_3250_3878)">
<rect x="-368" y="-312" width="1100" height="1099" rx="5" fill="white"/>
<rect id="Body" x="-368" y="-233" width="1100" height="1086" fill="#0E0E0E"/>
<g id="Frame 163">
<g id="Frame 154">
<g id="Frame 28">
<rect x="-15.5" y="-17.5" width="192" height="147" rx="7.5" fill="#833DDD" fill-opacity="0.16"/>
<rect x="-15.5" y="-17.5" width="192" height="147" rx="7.5" stroke="#833DDD"/>
<path id="Vector" d="M17.789 1.33998C16.4093 0.704969 14.9527 0.254472 13.4565 0C13.2518 0.367934 13.0666 0.746487 12.9015 1.13408C11.3078 0.892654 9.68713 0.892654 8.09341 1.13408C7.92834 0.746531 7.74309 0.367978 7.53843 0C6.04129 0.256627 4.58378 0.708189 3.20267 1.34329C0.460813 5.42133 -0.28246 9.3981 0.0891771 13.3184C1.69488 14.511 3.49211 15.418 5.40276 16C5.83298 15.4183 6.21368 14.8013 6.54079 14.1553C5.91947 13.922 5.31978 13.6342 4.74868 13.2952C4.89899 13.1856 5.04599 13.0726 5.18803 12.963C6.84983 13.7487 8.66359 14.1561 10.5 14.1561C12.3364 14.1561 14.1501 13.7487 15.8119 12.963C15.9556 13.081 16.1026 13.1938 16.2513 13.2952C15.679 13.6347 15.0783 13.923 14.4558 14.1569C14.7825 14.8026 15.1632 15.4192 15.5939 16C17.5061 15.4203 19.3048 14.5138 20.9108 13.3201C21.3468 8.77375 20.1659 4.83354 17.789 1.33998ZM7.01154 10.9074C5.97591 10.9074 5.12032 9.96264 5.12032 8.80031C5.12032 7.63803 5.94618 6.68493 7.00823 6.68493C8.07029 6.68493 8.91923 7.63803 8.90112 8.80031C8.88292 9.96264 8.06699 10.9074 7.01154 10.9074ZM13.9884 10.9074C12.9511 10.9074 12.0988 9.96264 12.0988 8.80031C12.0988 7.63803 12.9247 6.68493 13.9884 6.68493C15.0521 6.68493 15.8945 7.63803 15.8764 8.80031C15.8582 9.96264 15.0439 10.9074 13.9884 10.9074Z" fill="white"/>
</g>
</g>
</g>
</g>
<rect x="-367.75" y="-311.75" width="1099.5" height="1098.5" rx="4.75" stroke="#060606" stroke-width="0.5"/>
</g>
<defs>
<clipPath id="clip0_3250_3878">
<rect x="-368" y="-312" width="1100" height="1099" rx="5" fill="white"/>
</clipPath>
</defs>
</svg>
