<svg width="18" height="18" fill="none" xmlns="http://www.w3.org/2000/svg"><path opacity=".5" fill-rule="evenodd" clip-rule="evenodd" d="M7.34.804A1 1 0 018.32 0h1.36a1 1 0 01.98.804l.295 1.473c.497.144.971.342 1.416.587l1.25-.834a1 1 0 011.262.125l.962.962a1 1 0 01.125 1.262l-.834 1.25c.245.445.443.919.587 1.416l1.473.294a1 1 0 01.804.98V9.68a1 1 0 01-.804.98l-1.473.295a6.95 6.95 0 01-.587 1.416l.834 1.25a1 1 0 01-.125 1.262l-.962.962a1 1 0 01-1.262.125l-1.25-.834a6.95 6.95 0 01-1.416.587l-.294 1.473a1 1 0 01-.98.804H8.32a1 1 0 01-.98-.804l-.295-1.473a6.958 6.958 0 01-1.416-.587l-1.25.834a1 1 0 01-1.262-.125l-.962-.962a1 1 0 01-.125-1.262l.834-1.25a6.955 6.955 0 01-.587-1.416l-1.473-.294A1 1 0 010 9.68V8.32a1 1 0 01.804-.98l1.473-.295c.144-.497.342-.971.587-1.416l-.834-1.25a1 1 0 01.125-1.262l.962-.962A1 1 0 014.38 2.03l1.25.834a6.957 6.957 0 011.416-.587L7.34.804zM12 9a3 3 0 11-6 0 3 3 0 016 0z" fill="#fff"/></svg>