<svg width="38" height="36" fill="none" xmlns="http://www.w3.org/2000/svg"><g clip-path="url(#prefix__clip0_207_393)"><path d="M11.288 22.357l.003-.2.002-.05.003-.05.006-.15.006-.097.004-.05.004-.048.003-.05.009-.096.005-.05.026-.237.032-.234.015-.093.007-.045.008-.046.008-.046.008-.046.008-.044.017-.091.01-.044.009-.045.009-.044.01-.045.018-.087.01-.044.041-.173.023-.085.01-.043.013-.042.01-.041.011-.043.013-.042.01-.041.013-.042.013-.04.011-.04.013-.042.025-.08.012-.041.014-.04.026-.08.013-.038.013-.04.014-.04.013-.038.014-.04.014-.037.013-.038.014-.04.043-.113.014-.036.029-.075.015-.037.014-.037.015-.036.015-.037.045-.108.016-.035.014-.036.016-.035.015-.036.015-.034.016-.035.015-.034.016-.035.016-.035.016-.033.03-.069.05-.1.014-.034.016-.032.005-.008-.022-.043-.047-.1-.017-.034-.016-.033-.015-.035-.016-.033-.016-.035-.015-.035-.016-.035-.015-.034-.016-.035-.015-.035-.016-.036-.014-.035-.016-.036-.014-.036-.047-.108-.014-.037-.014-.037-.016-.036-.015-.037-.013-.037-.014-.038-.015-.037-.043-.115-.013-.038-.028-.077-.068-.197-.012-.038-.064-.203-.012-.041-.013-.041-.01-.04-.025-.084-.011-.043-.013-.041-.01-.042-.023-.086-.02-.085-.01-.043-.012-.043-.04-.176-.017-.088-.01-.045-.01-.044-.04-.227-.016-.092-.007-.046-.015-.093-.006-.046-.007-.048-.005-.047-.007-.047-.006-.047-.026-.239-.005-.049-.003-.048-.004-.05-.007-.096-.004-.05-.01-.197-.002-.05-.002-.05v-.05l-.003-.05V13.647l-.001-.021-.014.008-.045.025-.045.027-.044.026-.046.026-.044.027-.045.028-.044.027-.045.029-.045.027-.044.029-.046.029-.043.029-.045.03-.044.029-.09.06-.043.031-.044.031-.132.095-.043.033-.045.032-.043.033-.044.033-.043.034-.043.034-.044.035-.042.034-.087.07-.042.037-.043.035-.043.036-.042.037-.042.037-.043.037-.041.037-.042.039-.042.037-.042.04-.041.037-.083.079-.041.041-.041.04-.04.04-.042.04-.04.043-.04.04-.08.084-.039.043-.04.043-.04.043-.038.043-.04.043-.038.044-.039.046-.038.044-.038.046-.038.044-.076.092-.146.186-.037.049-.035.047-.073.097-.07.098-.034.05-.036.049-.068.1-.133.204-.098.156-.095.16-.123.216-.029.054-.03.055-.029.056-.028.055-.057.112-.083.17-.08.17-.01.024.008.019.053.115.054.113.029.057.027.056.029.057.027.056.119.22.09.162.033.053.03.053.033.053.031.052.032.054.033.05.033.053.1.154.068.1.035.05.034.05.035.05.035.049.107.144.037.048.035.048.038.048.037.046.037.046.074.092.038.047.037.045.04.045.038.045.077.087.039.044.039.043.08.087.079.083.04.042.04.042.041.041.08.081.042.041.082.079.042.039.042.038.04.04.043.037.041.038.127.112.129.109.042.035.043.035.043.035.043.035.043.034.044.034.086.067.044.032.044.034.044.032.045.031.043.032.133.093.044.03.045.03.088.06.045.028.044.03.134.084.224.135.09.05.018.011V22.358zm.07-8.773l.045-.026.046-.024.044-.024.135-.07.045-.023.045-.024.046-.022.044-.022.045-.021.045-.023.225-.104.045-.019.044-.02.046-.019.044-.02.268-.107.088-.034.045-.016.045-.017.044-.015.044-.017.044-.015.044-.016.044-.015.044-.014.045-.015.13-.042.044-.013.044-.014.086-.026.044-.013.043-.012.043-.012.043-.011.043-.013.043-.012.043-.01.17-.044.043-.01.041-.01.043-.01.084-.018.042-.01.166-.036.125-.024.04-.007.041-.008.082-.014.04-.007.081-.014.04-.006.041-.007.04-.006.08-.012.038-.005.04-.006.04-.005.039-.006.079-.01.038-.005.04-.005.037-.004.04-.005.038-.003.038-.004.039-.004.075-.008.04-.004.036-.003.038-.003.038-.004.111-.01h.001l.008-.01.02-.029.066-.09.02-.031.022-.03.023-.032.023-.03.022-.03.022-.03.023-.03.023-.031.118-.153.024-.032.024-.03.026-.032.024-.03.024-.031.026-.031.025-.03.076-.093.027-.032.027-.03.025-.03.055-.064.026-.03.028-.031.028-.031.027-.032.114-.123.029-.032.029-.03.029-.031.03-.03.06-.063.03-.03.03-.031.03-.03.031-.033.032-.03.032-.03.031-.03.032-.033.032-.03.032-.03.066-.062.033-.029.033-.03.034-.031.033-.031.036-.03.068-.06.035-.03.034-.03.035-.03.037-.03.07-.06.038-.03.036-.028.037-.03.038-.028.037-.03.037-.029.076-.058.04-.03.037-.027.118-.087.201-.14.042-.027.04-.028.043-.027.083-.055.085-.053.043-.028.044-.026.042-.027.088-.052.044-.025.044-.026.045-.026.018-.01-.005-.003-.045-.025-.046-.025-.046-.026-.092-.049-.046-.025-.047-.023-.047-.024-.046-.023-.095-.048-.097-.046-.049-.023-.049-.022-.048-.023-.049-.022-.05-.023-.05-.02-.05-.023-.05-.021-.05-.02-.05-.021-.052-.02-.05-.022-.052-.02-.052-.02-.155-.057-.054-.019-.052-.019-.053-.018-.054-.018-.053-.018-.054-.018-.054-.017-.055-.016-.053-.017-.055-.017-.054-.016-.112-.03-.054-.016-.056-.015-.113-.029-.055-.014-.057-.014-.114-.027-.056-.013-.174-.036-.057-.011-.117-.022-.058-.01-.118-.021-.058-.01-.06-.009-.06-.01-.058-.007-.06-.009-.06-.007-.06-.008-.06-.007-.06-.007-.121-.013L15.143 8l-.182-.016-.123-.008-.062-.002-.062-.005-.06-.002-.064-.002-.062-.002-.062-.002h-.063l-.062-.002h-.251l-.063.001-.063.003-.063.001-.064.003-.063.003-.063.002-.064.004-.064.005-.063.004-.128.01-.064.006-.064.005-.063.007-.04.005-.004.006-.075.101-.037.053-.037.05-.035.053-.037.051-.035.052-.034.052-.036.052-.034.053-.033.053-.035.053-.032.052-.032.054-.033.052-.063.106-.03.054-.032.052-.03.054-.088.162-.029.053-.028.055-.028.053-.027.055-.028.054-.052.109-.026.053-.05.11-.05.108-.024.056-.046.109-.022.054-.045.11-.021.055-.082.22-.02.055-.018.054-.02.056-.019.054-.053.165-.017.055-.016.055-.048.164-.029.11-.042.164-.04.164-.011.054-.045.218-.01.053-.01.056-.029.162-.008.053-.008.053-.008.055-.015.107-.008.053-.007.053-.023.213-.005.053-.012.158-.006.052-.002.053-.007.104-.002.052-.002.052-.002.052-.005.154v.052l-.001.05v.082l.03-.018.046-.024zm7.607 13.183l-.219-.13-.17-.109-.04-.027-.043-.027-.04-.027-.043-.028-.04-.028-.04-.028-.041-.028-.04-.028-.04-.028-.04-.029-.038-.029-.04-.028-.153-.116-.037-.028-.038-.03-.037-.028-.038-.03-.035-.029-.038-.03-.034-.03-.037-.03-.036-.03-.035-.03-.036-.029-.034-.03-.07-.06-.032-.03-.035-.03-.034-.03-.099-.091-.032-.031-.033-.03-.032-.032-.032-.03-.032-.03-.125-.123-.03-.031-.03-.03-.06-.063-.03-.03-.088-.093-.027-.031-.03-.031-.028-.03-.027-.032-.028-.03-.028-.032-.026-.03-.028-.032-.026-.03-.028-.032-.08-.093-.025-.03-.026-.032-.025-.03-.025-.031-.026-.03-.025-.032-.023-.03-.026-.03-.025-.032-.047-.061-.024-.031-.071-.092-.022-.03-.023-.031-.023-.03-.022-.031-.044-.06-.022-.03-.023-.03-.022-.032-.021-.029-.022-.03-.02-.031-.006-.006-.004-.001-.037-.003-.037-.003-.113-.01-.038-.003-.037-.004-.04-.004-.037-.003-.038-.004-.039-.005-.077-.008-.038-.005-.04-.004-.038-.005-.04-.005-.078-.01-.04-.005-.078-.011-.08-.013-.04-.005-.08-.013-.042-.007-.04-.007-.04-.007-.04-.007-.083-.014-.082-.016-.042-.009-.04-.007-.21-.044-.04-.01-.043-.009-.085-.02-.043-.01-.084-.02-.044-.012-.041-.011-.087-.022-.085-.024-.043-.012-.088-.025-.043-.012-.043-.014-.044-.013-.044-.015-.044-.012-.043-.014-.133-.044-.043-.016-.044-.014-.043-.016-.135-.049-.043-.015-.045-.017-.045-.018-.044-.017-.045-.018-.044-.017-.045-.019-.045-.018-.044-.019-.046-.018-.045-.02-.044-.019-.046-.02-.044-.02-.045-.02-.134-.062-.046-.023-.045-.02-.09-.046-.044-.022-.047-.023-.044-.024-.045-.023-.045-.024-.046-.024-.043-.025-.046-.024-.045-.026-.027-.015v.077l.002.052v.05l.004.155.007.157.003.05.004.054.002.052.005.052.004.053.005.052.004.054.01.104.007.054.019.16.008.053.006.054.01.053.014.108.01.053.008.054.01.054.01.055.02.108.012.054.01.054.012.055.012.054.012.054.013.055.013.055.026.108.044.165.016.055.014.055.017.054.015.056.018.055.016.054.018.054.017.056.02.054.017.055.038.11.02.055.02.055.02.054.02.056.045.11.02.054.024.056.022.053.022.055.024.055.025.055.025.054.023.054.025.056.052.108.026.055.028.053.027.055.054.107.029.055.029.053.028.054.03.054.03.054.03.053.03.054.032.052.032.054.031.053.065.105.034.054.033.051.034.053.104.157.035.052.109.155.037.05.076.103.008.01.032.004.064.007.065.006.191.016.064.003.064.005.063.003.064.003.062.002.064.003.063.002h.063l.063.002.064.001h.25l.124-.004.062-.003.062-.001.063-.003.123-.007.062-.005.06-.003.245-.021.06-.006.121-.014.06-.007.06-.007.06-.01.06-.007.06-.009.058-.008.06-.01.059-.01.059-.01.058-.01.117-.021.058-.012.059-.011.057-.012.172-.038.114-.027.224-.056.055-.016.055-.015.112-.032.218-.066.106-.035.055-.018.053-.017.106-.038.052-.018.26-.098.05-.022.102-.04.05-.023.05-.02.05-.023.05-.02.05-.023.05-.021.047-.024.05-.022.048-.024.048-.021.047-.024.096-.047.094-.048.046-.025.047-.024.138-.074.09-.051.009-.005-.021-.013-.09-.05zm7.882-13.097v.052l-.003.15-.002.05v.05l-.003.05-.003.05-.002.05-.013.195-.004.05-.012.145-.006.047-.004.048-.005.048-.006.049-.006.046-.006.048-.025.187-.008.047-.007.045-.023.139-.008.045-.007.045-.009.046-.01.045-.007.044-.01.045-.008.044-.01.045-.01.043-.009.044-.01.044-.01.044-.02.086-.011.043-.01.043-.046.17-.01.041-.013.042-.01.042-.025.083-.012.041-.013.04-.012.04-.012.04-.014.042-.026.08-.012.04-.014.038-.012.04-.014.04-.027.076-.014.04-.014.038-.013.038-.015.039-.015.037-.013.039-.015.037-.014.036-.029.076-.015.035-.014.038-.03.072-.015.037-.016.035-.03.072-.016.035-.014.035-.031.07-.03.069-.017.035-.015.034-.016.033-.016.035-.016.033-.015.034-.016.034-.016.032-.016.034-.01.02.012.025.016.033.063.133.016.035.016.033.015.035.016.035.016.033.015.036.015.035.017.035.015.034.014.036.047.108.014.036.03.072.015.036.03.075.013.037.03.074.014.038.015.037.028.077.012.039.029.076.067.197.013.041.012.039.026.08.012.042.013.04.012.042.013.04.01.042.025.083.011.043.01.042.013.041.011.043.053.215.04.176.026.132.01.046.009.045.017.09.007.046.008.046.008.046.006.046.016.092.006.046.007.048.006.046.007.048.006.046.005.048.006.047.005.048.004.049.01.095.005.05.004.048.004.049.003.048.003.05.004.05.003.048.003.049.002.05.002.05.004.1v.1l.003.051v.102l.032-.02.045-.025.045-.027.044-.026.046-.026.044-.027.045-.029.044-.027.135-.084.044-.03.045-.03.044-.028.089-.06.044-.03.044-.032.044-.03.044-.032.043-.032.045-.032.043-.034.044-.031.044-.034.043-.034.087-.067.043-.034.087-.07.042-.036.043-.036.042-.035.043-.037.042-.036.042-.038.043-.037.084-.075.04-.04.043-.037.124-.119.04-.04.042-.04.04-.04.04-.041.16-.167.04-.043.04-.043.078-.087.038-.044.04-.044.038-.044.038-.046.038-.044.114-.138.11-.14.037-.047.036-.048.036-.048.035-.047.106-.147.034-.05.036-.05.034-.05.033-.05.035-.051.066-.102.13-.209.063-.105.062-.108.032-.054.029-.054.031-.055.03-.054.028-.056.03-.055.029-.056.027-.055.028-.056.056-.113.026-.057.028-.057.025-.058.027-.057-.024-.053-.026-.057-.027-.057-.027-.058-.028-.057-.027-.055-.03-.056-.027-.056-.03-.056-.117-.22-.061-.108-.031-.053-.032-.053-.031-.053-.032-.054-.033-.052-.031-.052-.033-.052-.067-.103-.032-.05-.035-.052-.069-.1-.139-.197-.037-.049-.07-.096-.037-.048-.073-.094-.038-.046-.037-.046-.037-.047-.037-.046-.039-.045-.037-.045-.039-.046-.038-.043-.04-.045-.038-.044-.04-.043-.038-.043-.04-.043-.04-.043-.04-.042-.04-.042-.04-.042-.04-.04-.041-.041-.08-.081-.043-.04-.082-.08-.083-.076-.042-.039-.042-.038-.169-.15-.042-.035-.085-.072-.044-.035-.042-.035-.044-.035-.043-.034-.044-.034-.13-.1-.044-.033-.088-.064-.043-.032-.133-.094-.044-.03-.045-.03-.043-.03-.044-.03-.046-.029-.044-.03-.133-.084-.046-.027-.044-.028-.09-.054-.045-.025-.045-.027-.045-.025-.036-.02v.053zm-7.703-4.405l.044.027.045.025.088.053.042.027.043.025.17.108.041.028.042.028.163.11.12.085.04.028.038.029.04.028.115.087.037.028.038.03.038.03.146.117.036.03.036.03.07.059.035.03.105.09.032.03.035.03.033.03.034.03.032.032.066.06.033.031.031.03.033.031.124.123.03.031.03.03.032.03.176.187.057.06.028.033.029.03.026.031.028.031.028.03.026.032.028.031.053.062.026.031.026.031.025.03.026.032.026.03.024.031.026.03.049.063.025.03.024.03.025.032.094.122.023.032.022.03.024.03.022.03.022.031.023.03.021.03.023.03.022.032.021.029.022.03.021.03.018.025.02.002.037.003.112.01.037.003.038.004.039.003.037.003.04.004.037.005.078.008.038.005.038.004.04.005.038.004.079.011.04.004.078.011.04.007.04.005.2.032.041.008.04.006.042.007.081.016.042.007.04.008.084.017.04.008.126.026.042.01.042.009.043.01.042.01.17.041.043.011.042.01.043.013.043.01.043.013.043.013.044.01.042.013.044.013.043.014.088.025.043.014.044.014.043.014.177.059.044.015.044.017.044.014.045.017.044.017.09.033.043.017.045.018.044.017.136.055.088.038.046.02.044.019.046.02.043.02.046.02.045.02.046.022.044.02.045.023.046.021.045.023.044.022.045.023.045.024.046.023.09.047.045.025.044.024.046.025.045.025.009.006-.001-.048v-.102l-.002-.052-.002-.05-.001-.052-.003-.052v-.051l-.006-.105-.004-.051-.002-.053-.004-.053-.004-.051-.005-.054-.004-.052-.005-.053-.005-.053-.007-.053-.005-.052-.007-.055-.013-.106-.007-.054-.008-.053-.016-.107-.008-.054-.019-.107-.009-.055-.03-.162-.012-.054-.011-.054-.012-.055-.037-.164-.04-.163-.044-.165-.016-.054-.015-.056-.049-.163-.052-.166-.096-.274-.02-.055-.02-.054-.021-.056-.066-.165-.023-.054-.022-.055-.095-.218-.026-.054-.025-.055-.025-.054-.027-.055-.026-.054-.082-.161-.085-.163-.058-.107-.03-.054-.032-.053-.03-.054-.032-.053-.031-.053-.033-.053-.032-.053-.065-.105-.034-.053-.104-.156-.035-.053-.036-.05-.072-.104-.038-.052-.037-.05-.037-.053-.03-.04h-.007L24.887 8l-.065-.006-.063-.007-.064-.005-.064-.004-.064-.006-.126-.007-.064-.002-.064-.004-.063-.002-.126-.004h-.064l-.063-.003h-.188l-.062.002h-.063l-.062.002-.062.003-.062.001-.063.003-.184.01-.06.004-.063.005-.183.015-.06.006-.182.02-.12.016-.06.009-.06.007-.236.038-.058.01-.058.01-.118.023-.23.047-.114.027-.057.012-.056.014-.057.014-.057.015-.056.014-.055.015-.055.016-.055.015-.056.016-.054.016-.056.016-.055.017-.053.017-.054.017-.054.017-.054.018-.052.018-.054.018-.053.02-.053.017-.051.02-.053.019-.104.04-.05.02-.053.02-.051.02-.05.021-.05.021-.05.022-.05.02-.05.023-.05.021-.099.046-.048.021-.049.024-.049.022-.048.024-.047.022-.235.12-.138.074-.044.026-.046.025-.027.016.039.022.044.025zm5.895 18.677l.038-.05.036-.052.036-.052.037-.052.07-.104.103-.156.132-.212.095-.16.091-.16.059-.108.028-.053.03-.054.054-.107.028-.055.08-.163.024-.054.026-.055.024-.053.025-.056.024-.054.024-.055.022-.055.023-.054.023-.056.021-.054.023-.055.021-.054.062-.165.039-.11.037-.11.018-.056.018-.054.018-.054.017-.056.017-.054.016-.056.032-.11.015-.055.014-.054.015-.054.013-.055.014-.054.014-.056.014-.054.011-.055.013-.054.013-.055.033-.163.01-.054.01-.055.011-.053.019-.108.007-.054.01-.054.03-.215.007-.052.007-.055.017-.16.005-.051.004-.053.006-.053.004-.053.003-.052.004-.053.007-.103.007-.157.006-.205v-.103l.001-.05-.013.005-.09.051-.045.025-.044.024-.181.095-.09.045-.045.022-.044.022-.045.021-.046.022-.135.062-.044.02-.045.021-.045.019-.045.02-.045.019-.044.018-.045.02-.134.053-.044.017-.045.018-.044.017-.045.016-.044.017-.044.016-.045.016-.044.015-.044.016-.088.03-.132.043-.042.014-.044.014-.045.014-.173.051-.043.012-.043.013-.044.01-.042.013-.044.01-.042.013-.043.01-.042.01-.043.01-.041.012-.17.04-.042.008-.04.01-.085.017-.041.008-.04.009-.126.024-.04.007-.04.008-.123.02-.04.008-.04.007-.081.012-.04.006-.08.012-.038.006-.04.005-.04.006-.04.004-.038.006-.04.004-.038.006-.039.003-.039.005-.038.004-.038.004-.038.004-.04.005-.037.003-.037.004-.04.004-.073.006-.04.004-.036.003-.036.002-.018.002-.019.027-.022.03-.02.031-.11.151-.022.031-.023.03-.045.062-.024.03-.023.03-.047.062-.025.031-.047.061-.025.031-.024.03-.05.063-.025.03-.05.063-.027.03-.026.032-.027.03-.025.031-.027.032-.027.03-.054.063-.029.03-.026.031-.057.061-.028.033-.028.03-.03.031-.029.032-.028.03-.03.032-.03.03-.09.093-.062.061-.03.032-.063.06-.032.03-.032.032-.033.03-.033.03-.032.03-.066.063-.034.03-.034.03-.032.03-.036.03-.034.03-.035.031-.105.09-.036.03-.073.058-.036.03-.036.03-.038.029-.037.029-.076.058-.038.029-.038.03-.078.057-.038.029-.04.027-.04.029-.2.14-.125.082-.043.028-.042.027-.085.053-.044.027-.042.026-.131.079-.046.026-.044.025-.036.02.024.014.045.025.047.025.045.026.045.024.047.025.046.023.047.025.047.024.047.024.048.023.048.024.144.068.05.023.098.043.05.023.048.022.102.042.05.021.204.081.052.02.052.02.052.019.053.019.053.018.052.02.054.017.053.018.053.017.055.018.053.017.055.017.054.016.11.034.055.014.111.031.055.014.056.016.057.014.056.013.056.014.114.027.058.012.057.012.174.037.057.01.059.01.058.012.058.009.119.02.059.009.06.009.06.007.059.009.06.008.06.007.06.006.06.008.061.005.061.007.183.015.061.004.06.005.063.003.061.004.063.003.06.002.126.004.061.002.064.001h.312l.064-.003h.063l.063-.003.127-.005.19-.011.192-.015.064-.007.064-.006.064-.006.012-.002.027-.036.038-.052z" fill="#fff"/><path d="M21.535 13.656a.224.224 0 01.19.108l2.445 4.146c.04.067.04.15 0 .216l-2.444 4.156a.22.22 0 01-.19.108l-4.902.014a.225.225 0 01-.191-.107l-2.455-4.159a.213.213 0 010-.216l2.445-4.17a.218.218 0 01.192-.108l4.91.012z" fill="#EA5CF7"/><path d="M3.49 26.737l-.053-.172-.023-.086-.026-.088-.047-.173-.086-.348-.057-.263-.018-.086-.033-.177-.047-.261-.052-.351-.011-.089-.012-.087-.019-.175-.008-.089-.01-.087-.014-.176-.018-.262-.005-.088-.004-.087-.004-.087-.004-.174v-.088l-.003-.087v-.175l.001-.086.003-.087.001-.087.003-.086.004-.087.003-.086.004-.087.005-.086.007-.085.005-.087.007-.085.008-.084.008-.087.008-.085.03-.255.01-.084.012-.084.013-.086.013-.083.012-.084.015-.083.014-.085.014-.082.016-.084.016-.082.034-.166.017-.081.037-.165.06-.244.02-.08.022-.082.023-.08.021-.08.024-.08.023-.08.024-.08.048-.157.026-.078.027-.079.026-.078.027-.077.027-.079.057-.152.029-.078.06-.151.03-.077.03-.075.03-.075.033-.074.032-.076.032-.073.02-.044-.024-.05-.063-.148-.032-.075-.123-.302-.03-.077-.028-.075-.027-.078-.03-.077-.028-.077-.026-.079-.026-.076-.027-.079-.025-.078-.026-.08-.048-.159-.023-.078-.024-.08-.044-.16-.063-.244-.02-.082-.019-.08-.019-.082-.018-.083-.019-.081-.016-.083-.016-.083-.017-.083-.016-.083-.014-.083-.016-.084-.026-.168-.025-.167-.012-.085-.012-.085-.01-.084-.01-.086-.01-.084-.008-.085-.007-.086-.009-.085-.013-.172-.005-.086-.006-.086-.009-.173-.003-.085-.008-.348v-.175l.003-.173.003-.088.001-.086.004-.087.003-.088.006-.088.005-.089.005-.086.006-.087.009-.089.006-.087.008-.088.01-.088.008-.088.01-.087.012-.088.011-.089.012-.088.014-.087.012-.088.013-.087.016-.087.015-.089.015-.087.018-.087.016-.089.018-.087.078-.349.021-.087.021-.087.022-.088.023-.087.025-.086.023-.087.026-.087.024-.086.027-.087.026-.085.003-.004-.044.044-.123.136-.06.066-.181.205-.06.071-.06.07-.056.07-.059.072-.057.07-.114.145-.056.07-.056.074-.053.074-.056.074-.054.074-.159.226-.154.228-.05.078-.049.077-.05.079-.049.077-.142.238-.138.24-.09.16-.087.165-.04.082-.043.083-.041.082-.041.084-.04.083-.041.084-.038.083-.038.086-.075.169-.038.085-.035.086-.034.085-.036.086-.033.087-.034.086-.033.086-.126.351-.03.088-.028.089-.028.088-.028.09-.028.087-.026.09-.025.089-.026.091-.024.088-.025.09-.022.091-.023.091-.043.18-.02.092-.04.182-.019.092-.017.09-.019.092-.016.091-.015.094-.017.09-.014.093-.014.093-.012.091-.013.093-.033.277-.02.186-.008.092-.009.094-.006.094-.007.092-.006.094-.005.092-.004.094-.004.093-.002.094-.003.092v.094L0 17.95 0 18.043v.092l.004.188.004.186.004.093.006.093.004.094.006.093.007.094.007.092.008.093.008.093.01.093.01.092.01.094.012.092.013.092.012.093.013.091.013.094.017.092.014.092.05.275.056.274.021.09.02.092.022.09.021.09.07.27.05.18.027.09.026.089.056.178.029.088.028.089.03.087.03.088.063.175.032.088.1.26.036.085.034.085.037.085.037.087.036.085.155.336.041.084.042.082.04.083.043.083.042.082.043.08.088.164.09.16.047.082.046.079.047.08.145.234.05.078.05.077.05.078.154.23.052.074.054.076.053.074.054.075.055.073.055.074.056.072.055.073.057.072.057.072.057.07.117.143.058.07.06.069.18.205.063.068.06.067.063.066.047.051-.003-.011-.027-.087zm15.403 8.836l-.088-.02-.267-.069-.088-.024-.089-.025-.088-.024-.087-.025-.088-.027-.086-.027-.088-.027-.086-.027-.087-.03-.085-.028-.258-.091-.083-.031-.17-.064-.168-.066-.082-.034-.166-.07-.165-.072-.245-.112-.08-.036-.08-.04-.32-.16-.077-.04-.079-.042-.233-.128-.153-.088-.302-.182-.074-.046-.073-.047-.074-.047-.073-.047-.073-.05-.073-.047-.071-.05-.071-.049-.143-.1-.07-.052-.07-.05-.07-.052-.068-.051-.137-.105-.135-.108-.066-.052-.066-.056-.065-.054-.067-.055-.193-.167-.127-.114-.062-.056-.063-.059-.062-.056-.06-.059-.061-.057-.12-.118-.059-.06-.059-.06-.058-.06-.057-.06-.058-.06-.057-.061-.055-.061-.057-.061-.055-.062-.054-.062-.055-.062-.108-.125-.052-.064-.054-.063-.05-.064-.053-.064-.05-.062-.05-.065-.05-.065-.049-.064-.039-.052-.038-.004-.082-.01-.083-.01-.081-.01-.247-.033-.163-.026-.083-.013-.246-.045-.083-.015-.081-.017-.165-.034-.164-.037-.083-.02-.081-.018-.165-.041-.081-.022-.084-.022-.081-.022-.082-.024-.081-.022-.082-.025-.081-.026-.084-.025-.08-.026-.083-.026-.08-.027-.164-.056-.161-.059-.082-.03-.08-.03-.08-.03-.081-.033-.081-.032-.161-.066-.16-.068-.08-.035-.079-.036-.08-.037-.079-.035-.158-.076-.078-.04-.08-.038-.077-.04-.079-.04-.155-.081-.232-.128-.23-.133-.152-.09-.226-.142-.224-.145-.147-.1-.075-.052-.145-.103-.144-.105-.074-.053-.142-.108-.07-.056-.072-.056-.07-.056-.14-.113-.069-.06-.137-.116-.203-.178-.134-.122-.197-.187-.13-.128-.064-.064-.128-.13-.062-.066-.016-.015.025.075.056.171.06.173.06.17.034.084.031.086.035.085.033.083.035.085.07.168.037.083.037.085.037.083.038.082.039.084.04.083.04.081.04.083.083.164.086.162.044.081.044.08.046.08.09.162.048.08.048.078.047.08.097.156.151.233.051.077.053.077.054.076.051.076.055.075.055.077.054.074.056.076.055.073.114.148.057.072.119.147.058.071.06.072.121.142.063.07.061.07.063.07.063.069.128.137.064.067.066.069.065.067.066.066.068.065.067.067.066.065.138.128.07.065.21.188.07.062.071.061.146.122.072.058.073.06.074.059.074.06.075.057.226.17.077.056.077.055.077.054.078.055.077.053.158.106.238.154.08.05.081.049.081.05.082.047.082.05.163.093.167.093.25.133.169.086.086.042.085.041.257.12.088.04.173.077.087.036.088.036.088.037.088.036.088.033.089.035.088.032.09.035.088.032.18.061.09.032.09.029.09.029.09.028.09.027.092.028.181.052.093.025.184.049.09.022.093.023.093.022.091.022.371.078.092.017.094.018.093.016.092.017.094.015.093.015.093.014.094.013.28.036.095.011.094.009.092.01.096.01.092.007.189.014.093.007.188.01.093.002.094.005.094.003.189.003.093.002.281-.002.093-.002.094-.002.187-.006.093-.006.094-.004.092-.006.094-.006.092-.008.094-.007.091-.007.093-.01.092-.01.094-.01.092-.01.091-.013.093-.011.09-.012.185-.027.274-.047.09-.016.09-.016.092-.018.09-.019.09-.018.09-.02.05-.012-.083-.019-.09-.02zm14.406-5.911l.143-.238.09-.159.134-.241.044-.083.042-.08.124-.246.08-.165.077-.167.038-.082.037-.085.037-.082.036-.085.035-.084.034-.084.035-.084.033-.085.032-.085.033-.085.031-.086.031-.084.03-.086.03-.085.057-.172.027-.087.01-.03-.12.124-.063.065-.065.066-.064.063-.13.127-.065.062-.067.063-.066.061-.134.121-.068.06-.067.061-.069.058-.068.06-.138.115-.141.113-.07.056-.071.055-.142.11-.073.053-.071.053-.072.053-.22.155-.074.05-.072.05-.075.05-.074.05-.075.048-.075.046-.075.048-.075.046-.076.048-.076.044-.076.046-.078.044-.076.044-.155.086-.153.084-.156.081-.08.04-.078.04-.079.04-.078.038-.078.037-.08.038-.079.036-.08.035-.078.036-.08.035-.08.034-.081.033-.08.035-.08.031-.082.032-.08.032-.081.03-.08.031-.082.029-.08.03-.082.028-.244.083-.08.026-.246.075-.164.046-.081.024-.082.023-.083.021-.082.022-.083.02-.082.02-.08.02-.248.055-.163.034-.084.016-.082.016-.08.014-.084.015-.164.027-.081.012-.083.014-.082.01-.08.012-.084.01-.163.02-.066.007-.014.018-.049.066-.05.064-.05.065-.049.064-.103.128-.051.063-.16.19-.053.06-.055.063-.056.062-.054.062-.056.062-.058.06-.056.06-.115.122-.117.12-.18.177-.06.057-.123.117-.063.057-.062.056-.063.058-.065.056-.063.055-.065.057-.066.055-.065.055-.066.053-.066.056-.066.053-.068.053-.069.054-.067.053-.208.155-.068.05-.071.051-.072.05-.07.051-.072.049-.073.049-.072.049-.072.047-.296.188-.075.047-.076.044-.076.046-.152.088-.232.129-.079.042-.078.04-.078.043-.238.12-.081.04-.08.037-.08.039-.245.11-.165.073-.083.034-.084.035-.167.068-.084.031-.084.033-.086.031-.084.032-.085.03-.086.03-.086.029-.087.03-.086.028-.087.028-.086.026-.087.028-.263.076-.089.023-.087.024-.09.023-.088.023-.09.022-.088.021-.09.02-.04.01.007.002.09.019.09.02.09.017.091.019.273.049.091.015.09.014.092.015.091.013.093.013.367.046.094.008.092.01.093.008.185.015.093.007.094.005.093.006.185.008.095.004.094.003h.093l.094.001.186.001.187-.002.19-.004.093-.003.188-.01.093-.005.095-.005.187-.014.094-.008.093-.009.094-.008.188-.02.092-.012.187-.025.094-.014.094-.013.094-.014.093-.016.093-.015.092-.017.095-.017.092-.017.093-.019.092-.02.092-.02.094-.02.091-.021.093-.02.184-.047.183-.048.092-.025.09-.026.091-.025.182-.055.092-.028.089-.029.09-.03.09-.03.09-.03.09-.031.088-.033.09-.033.089-.033.089-.034.176-.07.088-.036.087-.035.174-.075.347-.157.085-.04.17-.085.085-.04.084-.045.085-.043.083-.045.084-.045.166-.09.083-.048.082-.046.08-.049.083-.048.082-.05.079-.049.082-.05.08-.05.236-.156.08-.053.078-.053.077-.054.078-.054.076-.056.077-.056.076-.056.076-.056.074-.057.075-.058.074-.059.075-.057.072-.06.074-.06.072-.06.073-.06.072-.062.07-.063.07-.06.072-.064.07-.063.069-.063.067-.065.07-.064.067-.065.068-.066.067-.066.065-.067.066-.066.13-.134.065-.069.063-.07.064-.068.063-.07.06-.07.063-.07.06-.07.063-.072.058-.071.06-.073.06-.071.058-.073.057-.073.116-.147.056-.075.054-.074.056-.075.054-.076.054-.075.107-.152.103-.153.151-.233.099-.158zm1.358-20.2l.025.087.071.26.045.173.02.089.022.087.02.086.058.263.033.176.047.262.014.088.014.087.013.088.013.089.012.087.01.088.01.086.012.089.008.089.008.086.01.088.007.088.006.087.007.088.003.088.006.087.005.089.005.086v.088l.007.26v.262l-.001.086-.003.088-.001.087-.003.086-.004.087-.006.086-.004.085-.01.172-.007.086-.008.086-.008.085-.009.086-.008.085-.031.255-.011.083-.013.085-.012.085-.026.166-.014.085-.015.083-.015.084-.015.082-.017.083-.018.083-.016.082-.037.164-.079.326-.021.08-.023.08-.02.08-.024.082-.024.078-.023.08-.024.079-.026.08-.024.078-.027.077-.025.078-.028.079-.027.077-.027.079-.057.152-.03.076-.029.078-.03.075-.03.075-.032.076-.062.149-.065.148h-.001l.002.006.033.075.034.074.032.074.06.15.032.075.03.076.03.076.03.077.028.077.028.076.028.077.028.078.026.078.027.078.027.078.024.08.025.078.049.158.023.08.066.24.064.244.057.245.035.164.017.082.016.084.016.082.016.084.014.083.015.085.014.082.012.085.013.084.012.084.023.17.008.084.012.085.009.085.007.085.008.087.008.084.006.086.006.087.007.086.013.259.003.085.006.26v.262l-.001.086-.003.088-.001.087-.003.088-.007.174-.005.088-.019.263-.007.087-.007.09-.019.175-.02.175-.011.087-.011.09-.014.086-.012.088-.013.087-.015.088-.016.088-.013.087-.017.089-.034.173-.036.177-.02.087-.02.086-.02.087-.022.088-.021.087-.07.26-.025.088-.025.086-.027.087-.024.086-.02.055.07-.073.061-.067.061-.067.062-.067.12-.138.06-.069.059-.07.059-.07.057-.07.058-.072.056-.071.059-.072.055-.073.057-.072.055-.072.108-.149.055-.075.158-.225.102-.152.1-.155.05-.079.05-.076.048-.08.048-.078.048-.08.184-.32.044-.08.087-.164.043-.081.042-.083.042-.082.042-.083.04-.083.04-.085.039-.082.04-.085.074-.169.038-.085.071-.17.069-.173.035-.087.065-.174.03-.086.034-.087.06-.177.03-.088.006-.016.028-.088.028-.09.028-.088.026-.089.025-.09.026-.088.025-.09.07-.272.022-.09.022-.091.021-.09.04-.182.037-.183.018-.09.017-.093.016-.092.015-.093.016-.091.013-.092.014-.092.012-.093.013-.092.012-.094.01-.092.01-.092.019-.186.007-.093.008-.094.007-.091.012-.187.004-.094.007-.186.003-.094.001-.093.002-.093v-.28l-.002-.093-.002-.094-.002-.093-.004-.093-.006-.093-.003-.094-.019-.279-.016-.185-.03-.28-.01-.092-.012-.093-.013-.091-.013-.094-.013-.091-.014-.093-.017-.091-.014-.093-.016-.091-.018-.093-.018-.09-.037-.183-.02-.092-.064-.272-.023-.09-.022-.089-.024-.09-.024-.091-.077-.269-.027-.088-.056-.178-.028-.088-.06-.177-.063-.174-.033-.088-.032-.086-.033-.086-.034-.088-.035-.085-.107-.258-.037-.083-.076-.171-.039-.085-.04-.082-.04-.084-.04-.083-.04-.083-.085-.165-.043-.083-.043-.08-.044-.082-.09-.16-.046-.082-.046-.079-.095-.16-.096-.156-.05-.077-.05-.079-.05-.076-.05-.077-.05-.077-.053-.075-.053-.077-.052-.075-.055-.075-.053-.073-.054-.075-.166-.22-.112-.143-.058-.072-.058-.072-.058-.068-.059-.072-.06-.07-.24-.273-.061-.067-.064-.067-.06-.067-.012-.01.02.061.052.172zM19.352.522l.177.046.264.072.088.027.174.05.088.029.086.026.087.03.085.028.087.029.171.06.085.03.085.033.084.033.085.032.082.034.084.033.166.07.247.107.245.113.079.037.08.04.24.12.077.04.158.084.077.042.077.044.078.043.153.088.15.09.297.186.147.095.217.147.071.05.07.05.072.05.138.103.07.053.069.05.068.053.135.108.066.052.068.054.065.054.066.056.258.222.063.057.062.057.063.058.06.058.063.058.062.058.06.059.059.058.06.059.058.06.06.06.056.06.058.06.058.06.056.063.056.06.055.061.056.063.055.061.054.063.052.062.053.064.053.062.104.127.101.13.1.127.05.066.01.012.071.009.164.018.082.011.081.01.082.012.083.013.082.013.082.014.082.012.246.045.247.051.082.016.083.02.081.018.084.02.08.02.247.062.083.023.081.022.328.097.08.026.083.026.081.026.245.084.161.059.08.03.082.03.08.031.08.033.082.032.08.034.08.033.159.069.08.035.08.036.08.037.079.037.078.038.079.038.235.118.079.041.078.04.31.17.153.088.227.136.227.141.149.097.221.15.074.052.146.103.072.052.071.054.073.054.072.054.07.055.071.054.07.058.071.055.139.114.07.06.137.115.068.06.066.061.068.06.067.06.066.063.067.06.066.063.13.128.064.063.128.13.062.066.053.054-.008-.025-.056-.17-.03-.087-.028-.086-.03-.084-.064-.172-.03-.085-.033-.084-.035-.085-.035-.084-.034-.085-.07-.168-.112-.25-.039-.084-.038-.082-.04-.083-.04-.081-.126-.247-.086-.161-.044-.082-.135-.24-.046-.08-.094-.16-.049-.077-.05-.08-.048-.077-.152-.233-.051-.077-.053-.077-.16-.227-.055-.075-.056-.075-.055-.075-.113-.148-.058-.072-.056-.074-.06-.072-.06-.074-.058-.071-.06-.07-.06-.073-.063-.07-.061-.07-.062-.07-.063-.07-.192-.206-.064-.068-.066-.065-.066-.069-.066-.066-.136-.13-.066-.065-.068-.066-.069-.064-.07-.062-.07-.064-.07-.062-.07-.062-.144-.124-.072-.06-.073-.06-.147-.12-.072-.058-.075-.058-.075-.056-.076-.06-.075-.056-.229-.165-.078-.055-.078-.054-.235-.158-.159-.103-.242-.15-.161-.097-.166-.096-.248-.137-.25-.133-.085-.043-.086-.042-.17-.083-.087-.04-.172-.08-.173-.078-.175-.074-.087-.035-.176-.072-.09-.034-.175-.067-.09-.034-.09-.03-.088-.032-.09-.03-.09-.03-.09-.03-.092-.028-.09-.03-.09-.027-.092-.026-.182-.052-.183-.049-.185-.046-.09-.022-.094-.022-.09-.022-.28-.058-.093-.018-.091-.019-.093-.016-.095-.016-.186-.032-.092-.014-.094-.014-.28-.037-.189-.021-.093-.01-.28-.026-.095-.007-.093-.006-.376-.02-.187-.006-.189-.002H22l-.375.003-.186.006-.094.005-.093.005-.094.004-.093.006-.092.007-.094.007-.092.008-.186.018-.091.01-.094.01-.092.01-.092.013-.09.012-.094.013-.09.014-.092.013-.09.015-.183.031-.091.018-.09.016-.182.036-.09.02-.09.019-.013.003.046.01.269.065z" fill="#fff"/><path d="M3.59 9.166l.064-.066.127-.129.065-.064.064-.062.067-.063.065-.064.067-.06.065-.062.135-.121.068-.06.067-.059.069-.06.069-.057.07-.06.068-.055.14-.114.071-.054.07-.057.072-.055.144-.107.072-.052.072-.054.146-.103.074-.05.072-.05.076-.05.074-.05.224-.145.226-.138.154-.09.152-.089.155-.086.076-.041.079-.043.078-.04.078-.04.078-.04.236-.116.08-.037.158-.073.08-.036.078-.035.08-.035.082-.033.08-.035.08-.032.08-.033.08-.032.082-.03.323-.12.08-.027.083-.029.08-.026.082-.027.082-.027.164-.05.08-.024.165-.046.081-.024.083-.02.082-.024.164-.04.246-.059.165-.034.08-.018.084-.017.083-.015.081-.016.083-.013.081-.016.165-.027.081-.012.083-.012.081-.012.083-.01.164-.02.08-.01.033-.003.043-.058.05-.063.1-.13.05-.064.051-.064.053-.062.051-.064.106-.127.055-.062.054-.061.054-.063.224-.246.056-.06.06-.06.056-.06.06-.06.24-.237.06-.056.124-.117.063-.057.062-.056.064-.057.064-.055.064-.057.066-.055.065-.055.066-.055.065-.055.066-.053.069-.054.066-.053.07-.052.067-.053.208-.155.141-.102.072-.049.071-.05.072-.048.072-.048.072-.05.074-.047.073-.048.074-.047.075-.046.074-.047.076-.044.076-.046.228-.132.154-.086.158-.085.078-.04.079-.043.158-.08.081-.039.08-.038.08-.039.163-.074.082-.038.082-.034.166-.072.083-.034.082-.035.17-.066.082-.034.086-.03.083-.032.086-.031.086-.03.085-.03.086-.03.086-.028.174-.055.087-.026.088-.027.176-.051L18.43.6l.088-.023.089-.025.267-.066.089-.021.076-.017-.043-.01-.09-.019-.09-.018-.092-.018-.18-.036-.091-.015-.09-.016-.184-.03-.091-.013-.093-.013-.09-.013-.277-.034-.093-.01-.09-.01-.095-.008-.092-.008-.093-.008-.093-.008-.094-.005-.092-.005-.094-.005-.185-.008-.095-.004h-.093L16.328.13l-.094-.002h-.093l-.282.003-.094.002-.093.003-.094.004-.094.004-.095.006-.092.005-.095.006-.187.013-.093.01-.095.007-.281.031-.094.013-.093.01-.095.014-.092.014-.094.014-.185.03-.187.032-.28.055-.091.02-.278.061-.091.022-.184.046-.093.024-.183.05-.09.026-.092.027-.09.026-.09.03-.091.027-.18.059-.09.03-.09.03-.088.033-.09.031-.09.035-.088.032-.089.034-.088.035-.089.036-.086.036-.088.036-.088.038-.086.038-.086.039-.089.038-.255.121-.086.042-.17.085-.083.043-.253.134-.083.046-.081.046-.084.047-.082.048-.08.048-.083.048-.081.048-.16.102-.08.05-.079.051-.08.053-.079.052-.078.054-.077.053-.079.053-.077.055-.076.057-.077.055-.075.056-.3.23-.072.06-.074.06-.073.06-.072.06-.073.06-.071.062-.07.061-.07.063-.07.064-.07.063-.07.063-.068.066-.069.063-.068.066-.066.065-.133.133-.131.135-.192.205-.062.069-.064.07-.122.14-.062.072-.06.07-.06.072-.059.072-.059.073-.058.072-.058.074-.056.074-.057.073-.057.074-.11.151-.053.075-.16.229-.052.076-.05.078-.053.077-.05.079-.049.077-.098.156-.095.16-.138.239-.09.161-.085.162-.043.083-.124.245-.04.083-.039.083-.039.081-.037.085-.038.083-.073.166-.036.085-.07.168-.066.169-.064.171-.031.084-.03.086-.03.085L3.59 9l-.03.085-.026.086-.026.082.02-.021.061-.066z" fill="#fff"/></g><defs><clipPath id="prefix__clip0_207_393"><path fill="#fff" d="M0 0h38v36H0z"/></clipPath></defs></svg>