<svg width="23" height="23" viewBox="0 0 23 23" fill="none" xmlns="http://www.w3.org/2000/svg">
<g clip-path="url(#clip0_1_2)">
<path d="M11.5 22.2812C17.4543 22.2812 22.2812 17.4543 22.2812 11.5C22.2812 5.54568 17.4543 0.71875 11.5 0.71875C5.5457 0.71875 0.71875 5.54568 0.71875 11.5C0.71875 17.4543 5.5457 22.2812 11.5 22.2812Z" fill="#3772FF"/>
<path d="M6.68437 9.65907C7.66008 9.65907 8.55104 9.65907 9.50123 9.65907C9.19669 9.20841 8.92846 8.79664 8.64031 8.39953C8.5974 8.33994 8.46156 8.33024 8.36848 8.32959C7.58317 8.32413 6.79808 8.33506 6.01323 8.31802C5.89121 8.31558 5.73616 8.22559 5.65827 8.12712C5.44144 7.85098 5.25638 7.54817 5.03125 7.21489C5.15554 7.20518 5.23949 7.19239 5.32345 7.19239C6.53158 7.19117 7.73972 7.19605 8.94736 7.1875C9.14171 7.1863 9.2547 7.24953 9.36337 7.41254C10.0582 8.45487 10.7636 9.49059 11.4884 10.5615C11.5573 10.4758 11.616 10.4138 11.6632 10.3438C12.327 9.36467 12.9853 8.38249 13.6563 7.40888C13.7252 7.30918 13.8672 7.20087 13.9766 7.19965C15.2449 7.18509 16.5131 7.19059 17.7815 7.19181C17.8281 7.19181 17.8745 7.20454 17.9688 7.2179C17.723 7.58339 17.5067 7.92091 17.2691 8.24263C17.2246 8.30343 17.094 8.32234 17.0035 8.32291C16.2182 8.32902 15.433 8.33204 14.6477 8.32234C14.4664 8.31989 14.356 8.37344 14.2574 8.53092C14.0291 8.89762 13.7784 9.25031 13.5032 9.65907C14.4508 9.65907 15.346 9.65907 16.316 9.65907C16.048 10.0585 15.8273 10.4034 15.5851 10.7324C15.5405 10.7926 15.408 10.8084 15.3158 10.809C14.571 10.8157 13.8256 10.8242 13.0813 10.8084C12.8242 10.803 12.6627 10.8722 12.517 11.0991C12.1873 11.6142 12.1777 11.6014 12.517 12.0874C12.8471 12.5593 13.1726 13.0349 13.4872 13.5177C14.0508 14.3825 14.0081 15.5093 13.3919 16.3066C12.7601 17.1247 11.703 17.4512 10.7419 17.1252C9.78133 16.7993 9.11878 15.8949 9.11224 14.866C9.10843 14.3593 9.25168 13.8893 9.54464 13.4672C9.92529 12.9192 10.2901 12.3603 10.6731 11.8142C10.7823 11.6586 10.7649 11.5546 10.6809 11.3849C10.4507 10.9197 10.1232 10.7543 9.60135 10.7993C8.97208 10.8534 8.33419 10.8224 7.6999 10.8042C7.57613 10.8005 7.41779 10.7166 7.34038 10.6174C7.12002 10.3353 6.93144 10.0257 6.68437 9.65907ZM11.5446 12.6322C11.4902 12.6736 11.4607 12.6863 11.4456 12.7089C11.1042 13.2094 10.7528 13.7032 10.4278 14.2146C10.1119 14.7109 10.2152 15.3616 10.6451 15.7678C11.0729 16.1717 11.7083 16.2215 12.2019 15.8888C12.6749 15.5702 12.9254 14.9268 12.6645 14.4232C12.3431 13.8024 11.9251 13.2318 11.5446 12.6322Z" fill="white"/>
</g>
<defs>
<clipPath id="clip0_1_2">
<rect width="23" height="23" fill="white"/>
</clipPath>
</defs>
</svg>
