<svg viewBox="0 0 442 424" fill="none" xmlns="http://www.w3.org/2000/svg"><circle cx="221.105" cy="212.714" r="209.669" fill="#F2F2F3"/><path d="M242.701 173.525a1.94 1.94 0 011.676.97l21.524 37.241c.347.6.347 1.34.001 1.941l-21.519 37.331c-.346.599-.984.97-1.676.972l-43.14.128a1.938 1.938 0 01-1.686-.969l-21.608-37.354a1.94 1.94 0 01-.003-1.939l21.524-37.456a1.941 1.941 0 011.688-.974l43.219.109z" fill="#EA5CF7"/><path d="M74.647 295.788l-.488-1.647-.222-.829-.236-.837-.445-1.658-.804-3.336-.538-2.517-.167-.831-.316-1.689-.435-2.508-.494-3.366-.102-.846-.11-.834-.179-1.676-.08-.852-.09-.838-.135-1.687-.162-2.507-.046-.848-.041-.828-.033-.84-.04-1.665-.011-.846-.02-.832.004-1.676.007-.816.023-.843.015-.829.028-.821.037-.835.028-.821.037-.835.05-.827.062-.818.05-.827.063-.818.076-.81.071-.832.076-.81.293-2.447.09-.802.11-.807.12-.821.124-.799.11-.807.138-.792.132-.812.138-.791.145-.804.151-.783.318-1.593.164-.775.344-1.576.556-2.34.198-.772.207-.785.212-.764.199-.772.225-.756.212-.764.233-.769.45-1.511.239-.748.26-.752.238-.748.252-.739.26-.753.53-1.463.273-.744.556-1.447.286-.736.279-.723.291-.716.305-.707.3-.728.304-.707.182-.417-.217-.48-.59-1.418-.31-.718-1.149-2.891-.279-.736-.266-.727-.257-.742-.28-.736-.258-.741-.25-.754-.244-.733-.25-.754-.236-.747-.241-.767-.457-1.519-.215-.752-.22-.773-.414-1.529-.596-2.334-.178-.783-.185-.77-.178-.783-.17-.796-.176-.783-.157-.789-.147-.801-.157-.789-.147-.801-.135-.793-.148-.802-.253-1.613-.227-1.598-.118-.82-.105-.811-.092-.804-.097-.825-.092-.804-.084-.817-.062-.822-.084-.817-.125-1.644-.04-.828-.063-.822-.082-1.654-.028-.82-.078-3.329.003-1.676.03-1.659.024-.842.015-.83.036-.835.023-.842.058-.84.045-.848.05-.827.057-.839.08-.845.057-.84.08-.845.092-.837.079-.845.092-.837.114-.842.1-.85.115-.842.127-.834.114-.842.127-.834.148-.839.135-.847.15-.839.16-.831.157-.852.162-.831.733-3.344.204-.841.197-.828.204-.842.218-.833.231-.825.218-.833.24-.838.23-.825.253-.83.244-.817.024-.04-.406.426-1.158 1.297-.57.636-1.698 1.97-.56.678-.553.665-.54.673-.547.686-.54.673-1.067 1.389-.526.681-.521.703-.508.71-.52.703-.508.71-1.49 2.17-1.444 2.18-.476.749-.454.743-.476.748-.455.743-1.34 2.28-1.291 2.291-.838 1.548-.819 1.578-.388.784-.396.796-.388.784-.383.805-.375.792-.383.805-.361.8-.357.821-.697 1.616-.356.821-.335.816-.322.825-.335.816-.308.832-.322.824-.309.833-1.18 3.362-.274.835-.27.857-.26.843-.268.857-.26.843-.248.852-.234.859-.242.873-.226.847-.234.859-.208.876-.22.868-.4 1.725-.194.884-.372 1.741-.173.879-.165.866-.172.879-.152.873-.146.895-.152.874-.138.882-.125.89-.116.877-.125.889-.311 2.655-.18 1.786-.083.879-.077.901-.055.896-.07.888-.055.896-.047.882-.043.904-.034.891-.021.899-.026.877-.008.907-.013.885-.007.907.008.881.028 1.803.043 1.777.035.897.057.891.035.897.056.891.07.9.065.878.07.9.077.886.091.894.1.882.09.894.113.889.12.876.113.89.12.876.127.897.155.879.134.884.466 2.637.53 2.621.197.869.19.882.206.855.198.869.659 2.59.46 1.722.262.853.241.859.524 1.706.27.84.263.853.291.835.284.848.584 1.67.304.842.94 2.489.334.825.321.816.343.811.348.833.342.811 1.456 3.224.385.801.394.788.372.792.407.796.393.788.402.774.83 1.565.845 1.538.436.778.431.756.445.764 1.357 2.252.474.746.46.737.474.746 1.446 2.197.49.719.504.727.498.706.511.714.52.7.511.714.528.688.52.7.527.688.541.695.536.674 1.098 1.365.544.661.557.669 1.696 1.967.587.65.573.643.582.629.447.492-.026-.107-.257-.832zM219.264 380.451l-.828-.196-2.5-.654-.825-.231-.838-.239-.825-.231-.817-.244-.83-.253-.809-.257-.822-.266-.809-.258-.813-.279-.801-.271-2.418-.876-.784-.298-1.595-.611-1.579-.638-.769-.324-1.563-.664-1.546-.69-2.296-1.076-.752-.351-.757-.372-2.996-1.54-.728-.391-.74-.398-2.185-1.227-1.436-.842-2.84-1.736-.695-.444-.687-.457-.695-.443-.687-.457-.679-.469-.687-.457-.671-.483-.666-.462-1.341-.967-.65-.488-.671-.483-.641-.502-.649-.488-1.283-1.003-1.266-1.03-.62-.507-.625-.528-.612-.52-.625-.528-1.811-1.6-1.191-1.093-.583-.539-.587-.56-.582-.538-.567-.565-.574-.552-1.132-1.13-.545-.57-.558-.578-.544-.57-.537-.584-.544-.57-.537-.583-.515-.589-.537-.583-.515-.589-.507-.602-.515-.588-1.014-1.204-.486-.607-.507-.602-.478-.62-.485-.607-.473-.599-.477-.62-.457-.626-.464-.612-.369-.499-.36-.038-.767-.086-.781-.095-.76-.1-2.318-.324-1.529-.242-.778-.129-2.309-.428-.783-.151-.762-.156-1.549-.328-1.534-.354-.78-.185-.767-.178-1.543-.397-.764-.212-.785-.206-.764-.212-.769-.234-.764-.212-.769-.233-.761-.246-.782-.242-.761-.246-.774-.255-.753-.26-1.532-.536-1.515-.562-.772-.289-.757-.281-.75-.295-.755-.316-.763-.302-1.51-.632-1.494-.658-.76-.338-.738-.342-.752-.35-.739-.343-1.488-.727-.735-.377-.744-.364-.728-.39-.736-.378-1.455-.78-2.185-1.227-2.16-1.267-1.42-.868-2.126-1.355-2.1-1.394-1.385-.956-.697-.5-1.368-.982-1.352-1.009-.69-.513-1.335-1.036-.66-.531-.673-.539-.66-.531-1.303-1.089-.656-.566-1.287-1.115-1.907-1.713-1.254-1.168-1.858-1.793-1.222-1.221-.59-.616-1.205-1.248-.582-.629-.148-.145.231.725.53 1.637.557 1.653.574 1.627.307.808.3.821.322.817.316.795.32.816.66 1.606.35.798.343.811.35.798.36.785.363.806.372.793.38.779.372.793.787 1.575.803 1.549.415.782.41.761.436.778.846 1.538.444.764.453.751.444.764.905 1.501 1.422 2.237.482.733.495.74.503.727.482.733.512.714.516.735.512.714.524.722.52.7 1.066 1.418.54.696 1.109 1.407.55.682.561.69 1.141 1.354.592.672.57.677.592.672.587.651 1.2 1.317.608.646.621.653.609.645.616.633.637.627.63.64.624.619 1.291 1.227.659.622 1.962 1.801.675.595.662.588 1.366 1.164.679.56.683.582.699.556.692.568.699.556 2.123 1.626.729.537.716.529.724.516.737.524.724.515 1.477 1.013 2.234 1.476.761.484.757.462.761.484.765.45.769.47 1.529.899 1.572.888 2.355 1.277 1.578.819.81.404.797.396 2.415 1.149.826.378 1.627.739.808.349.829.343.821.356.83.343.824.322.837.33.833.309.837.329.833.309 1.681.59.853.304.836.274.848.282.857.268.843.261.857.269 1.703.494.873.242 1.719.468.855.213.868.221.875.207.855.213 3.483.744.865.165.879.173.874.151.865.165.882.138.874.152.868.13.89.125 2.63.35.885.104.88.082.871.095.893.091.866.074 1.776.138.874.06 1.765.095.878.026.882.048.878.026 1.771.026.877.026 2.641-.026.868-.016.888-.022 1.751-.06.87-.051.883-.044.87-.051.878-.064.865-.073.878-.065.865-.072.873-.086.86-.094.881-.1.868-.107.855-.115.868-.108.854-.115 1.726-.258 2.572-.45.845-.158.857-.15.853-.172.839-.179.852-.172.847-.193.471-.113-.78-.185-.849-.192zM354.517 323.811l1.34-2.28.856-1.519 1.252-2.316.409-.788.402-.776 1.164-2.351.75-1.583.723-1.6.353-.787.349-.808.34-.794.348-.808.327-.803.314-.811.327-.803.313-.811.301-.819.313-.811.288-.827.292-.806.287-.827.279-.814.531-1.644.253-.83.088-.293-1.115 1.196-.597.619-.606.633-.603.598-1.221 1.222-.616.589-.624.603-.616.59-1.258 1.163-.642.573-.63.582-.647.552-.643.573-1.295 1.104-1.321 1.088-.653.531-.674.536-1.332 1.045-.68.514-.671.501-.679.515-2.053 1.479-.698.485-.676.479-.711.477-.69.472-.703.463-.708.443-.702.463-.708.442-.717.456-.713.42-.708.443-.734.426-.713.42-1.453.826-1.437.798-1.463.783-.745.383-.737.37-.744.383-.737.37-.729.357-.75.361-.742.349-.755.34-.734.335-.755.341-.747.327-.76.319-.747.327-.752.306-.766.297-.752.306-.765.298-.745.292-.77.276-.757.285-.771.276-2.288.789-.754.249-2.303.725-1.545.441-.76.228-.773.22-.778.199-.765.207-.777.199-.77.185-.757.194-2.328.527-1.528.323-.789.156-.767.151-.758.138-.78.142-1.545.259-.763.116-.773.13-.777.108-.756.103-.777.108-1.538.19-.619.059-.127.177-.459.631-.464.61-.472.623-.464.609-.971 1.23-.477.601-1.496 1.82-.504.586-.512.598-.525.591-.512.598-.525.59-.539.583-.53.569-1.077 1.164-1.103 1.149-1.695 1.698-.557.553-1.157 1.116-.591.55-.584.536-.591.55-.605.542-.597.528-.605.542-.618.534-.61.52-.623.512-.618.534-.623.512-.637.504-.644.517-.637.504-1.949 1.488-.642.483-.663.488-.676.48-.663.488-.668.466-.69.472-.668.466-.681.459-2.779 1.801-.708.442-.714.421-.708.442-1.426.841-2.179 1.238-.74.405-.731.391-.74.405-2.235 1.149-.758.375-.75.362-.758.375-2.29 1.061-1.553.691-.781.324-.79.337-1.564.649-.786.303-.795.316-.8.294-.787.303-.8.295-.814.286-.805.273-.813.287-.806.273-.818.265-.811.252-.818.265-2.471.732-.829.222-.816.231-.842.214-.829.222-.842.214-.834.201-.847.193-.364.088.062.019.836.183.849.192.844.169.858.178 2.557.47.86.144.847.135.861.143.855.122.868.13 3.454.435.879.082.859.088.879.082 1.733.148.874.061.883.047.874.061 1.739.079.891.034.877.026.872.005.886.013 1.745.009 1.76-.017 1.777-.044.876-.03 1.766-.086.87-.051.892-.057 1.756-.129.886-.078.873-.086.887-.077 1.762-.199.868-.107 1.752-.241.884-.134.876-.121.884-.134.879-.155.871-.142.866-.163.887-.169.865-.163.874-.177.861-.185.868-.198.882-.19.856-.206.868-.198 1.727-.439 1.722-.46.858-.241.846-.249.858-.241 1.706-.524.862-.275.84-.271.848-.283.834-.292.856-.297.835-.291.83-.313.851-.319.829-.313.838-.326 1.649-.669.833-.348.811-.342 1.638-.712 3.257-1.509.801-.385 1.591-.814.801-.385.791-.428.796-.407.777-.436.79-.428 1.555-.873.786-.449.764-.445.758-.465.773-.458.767-.479.745-.474.767-.479.754-.487 2.221-1.485.749-.509.727-.503.722-.525.735-.517.709-.532.73-.538.709-.533.717-.546.695-.541.704-.555.69-.562.704-.554.677-.571.699-.575.677-.571.685-.583.672-.592.658-.6.664-.579.667-.613.659-.6.645-.608.632-.616.654-.622.632-.616.64-.629.627-.638.614-.645.619-.625 1.227-1.291.6-.654.596-.675.6-.654.587-.662.574-.67.582-.683.574-.67.582-.683.547-.687.569-.691.547-.686.556-.7.534-.694 1.084-1.416.529-.715.508-.711.529-.716.502-.732.508-.71 1.004-1.464.97-1.467 1.42-2.232.925-1.512zM142.404 256.941l.035-2.064.02-.509.027-.52.06-1.528.063-1.005.038-.513.042-.496.031-.502.085-.992.049-.506.268-2.444.323-2.41.152-.95.069-.464.076-.475.087-.468.075-.475.081-.457.174-.937.091-.45.098-.462.091-.45.099-.461.182-.901.11-.454.41-1.774.227-.873.102-.444.125-.43.107-.425.114-.437.125-.43.106-.425.125-.43.129-.412.118-.418.125-.43.259-.824.118-.418.14-.405.258-.824.134-.394.129-.412.14-.405.134-.393.14-.405.145-.387.133-.394.14-.405.434-1.161.138-.376.29-.774.155-.38.138-.376.149-.369.156-.38.447-1.107.16-.362.149-.369.16-.362.149-.369.154-.351.16-.363.153-.351.16-.362.154-.351.164-.344.307-.702.493-1.033.154-.351.157-.333.048-.078-.221-.442-.476-1.027-.169-.349-.159-.343-.152-.353-.159-.343-.163-.36-.151-.354-.163-.36-.152-.354-.163-.36-.145-.365-.163-.36-.145-.365-.156-.372-.145-.364-.469-1.115-.138-.376-.15-.383-.156-.371-.149-.383-.138-.376-.143-.394-.149-.383-.428-1.182-.131-.387-.285-.787-.679-2.026-.124-.398-.644-2.081-.122-.428-.129-.416-.111-.421-.244-.854-.115-.439-.123-.427-.104-.432-.23-.877-.212-.882-.098-.443-.115-.438-.397-1.808-.181-.908-.102-.461-.09-.454-.418-2.326-.153-.953-.066-.469-.154-.953-.058-.481-.07-.487-.059-.481-.07-.488-.059-.48-.259-2.46-.045-.503-.034-.496-.045-.503-.068-.993-.039-.514-.108-2.029-.009-.512-.02-.519-.01-.511-.02-.519-.002-.523-.009-.511-.003-.523-.004-.218-.142.082-.451.261-.447.279-.451.261-.458.272-.447.279-.453.29-.447.279-.453.29-.447.279-.443.297-.46.301-.442.297-.449.308-.443.297-.898.616-.445.327-.438.314-1.334.979-.434.333-.452.337-.434.333-.44.344-.429.351-.441.344-.436.362-.429.351-.873.724-.425.369-.436.362-.425.369-.432.38-.42.387-.432.38-.414.376-.428.398-.42.387-.417.405-.42.387-.833.809-.412.423-.416.405-.406.412-.412.423-.4.429-.412.423-.802.86-.39.436-.407.441-.397.448-.39.436-.396.448-.385.454-.393.466-.385.455-.381.472-.385.455-.762.945-1.48 1.917-.365.497-.359.486-.731.995-.709 1.008-.343.511-.354.504-.693 1.034-1.342 2.093-.983 1.607-.957 1.639-1.235 2.221-.294.556-.301.567-.29.574-.283.564-.58 1.148-.836 1.743-.802 1.764-.103.244.083.189.533 1.185.547 1.163.284.588.281.57.284.588.28.57 1.193 2.263.915 1.664.323.55.311.544.323.55.319.532.323.551.325.521.33.539 1.01 1.584.687 1.033.35.506.344.517.35.505.361.513 1.072 1.483.375.49.357.495.375.49.371.472.382.479.741.944.382.479.378.461.388.468.396.457.769.9.395.456.391.439.805.891.796.855.41.434.398.428.416.423.809.833.416.423.824.81.43.401.418.394.412.405.425.383.419.394 1.276 1.149 1.296 1.115.421.364.439.361.428.354.439.36.428.354.446.349.869.685.442.332.446.349.441.331.449.321.43.324 1.345.961.437.313.455.309.888.605.451.291.444.302 1.353.873 2.254 1.379.907.524.179.109.004-.258-.002-.523zM143.106 166.754l.451-.261.456-.243.444-.25 1.366-.729.449-.232.455-.243.46-.225.448-.231.453-.214.449-.232 2.264-1.069.457-.196.446-.203.457-.196.446-.202 2.703-1.108.887-.347.454-.167.444-.173.448-.156.443-.174.448-.155.437-.162.448-.156.441-.144.448-.156 1.323-.433.434-.133.441-.144.869-.267.445-.126.434-.133.428-.122.438-.116.435-.133.427-.122.432-.104 1.718-.452.425-.093.42-.111.432-.104.85-.186.414-.099 1.681-.368 1.255-.245.4-.077.418-.082.822-.141.4-.078.823-.141.404-.059.412-.071.393-.066.809-.119.386-.055.405-.059.397-.048.394-.067.795-.096.386-.055.398-.048.379-.044.398-.048.391-.038.379-.043.391-.038.759-.087.391-.037.373-.033.384-.026.38-.044 1.118-.098.011.007.08-.105.202-.306.661-.93.209-.317.22-.31.227-.321.232-.303.22-.31.227-.322.232-.303.227-.321 1.191-1.572.245-.326.239-.314.256-.319.249-.307.246-.326.256-.319.249-.307.769-.956.274-.323.268-.312.256-.319.549-.646.267-.312.274-.323.286-.316.274-.323 1.142-1.265.292-.328.297-.309.292-.327.297-.31.606-.641.297-.309.303-.321.315-.314.31-.331.315-.314.326-.307.314-.314.322-.325.325-.307.315-.313.665-.637.337-.3.333-.318.343-.311.333-.318.355-.304.687-.623.355-.304.344-.312.355-.304.373-.309.709-.609.373-.308.366-.298.373-.309.377-.291.373-.308.378-.291.768-.604.395-.295.377-.291 1.186-.885 2.032-1.441.417-.282.407-.288.428-.275.835-.563.858-.549.435-.286.44-.268.429-.274.88-.536.451-.261.439-.268.451-.26.185-.102-.055-.034-.454-.262-.46-.251-.464-.269-.921-.501-.471-.258-.467-.239-.478-.247-.467-.239-.956-.493-.97-.471-.496-.242-.492-.224-.485-.235-.492-.224-.503-.231-.499-.213-.502-.231-.51-.22-.506-.201-.509-.22-.517-.209-.51-.22-.523-.197-.517-.209-1.57-.592-.542-.193-.523-.197-.53-.187-.549-.182-.53-.186-.548-.182-.537-.175-.555-.171-.537-.175-.555-.171-.544-.163-1.124-.32-.551-.152-.562-.16-1.137-.297-.558-.142-.568-.148-1.152-.275-.564-.13-1.747-.378-.578-.109-1.179-.229-.578-.109-1.192-.207-.585-.097-.602-.093-.596-.104-.599-.074-.603-.093-.598-.075-.61-.081-.599-.075-.616-.07-1.211-.127-.623-.059-1.837-.157-1.238-.082-.625-.03-.619-.041-.615-.024-.633-.019-.626-.029-.621-.012-.64-.008-.621-.012-1.257-.002-.646.004-.628-.001-.636.01-.63.028-.636.011-.648.032-.631.029-.642.021-.638.04-.644.05-.638.04-1.289.101-.64.069-.644.05-.641.069-.397.048-.041.067-.758 1.039-.375.538-.368.526-.357.534-.368.526-.357.534-.346.54-.357.533-.345.54-.335.547-.345.54-.328.536-.323.554-.328.536-.64 1.096-.305.549-.317.543-.305.549-.883 1.669-.287.545-.283.563-.288.546-.265.558-.283.563-.53 1.118-.258.548-.508 1.131-.494 1.109-.243.572-.472 1.122-.217.557-.45 1.137-.218.556-.827 2.255-.195.571-.189.559-.196.571-.188.559-.533 1.699-.171.555-.166.573-.479 1.686-.297 1.137-.425 1.673-.391 1.693-.124.553-.45 2.241-.106.549-.101.566-.283 1.668-.088.544-.076.552-.084.562-.153 1.103-.069.54-.077.552-.234 2.188-.052.536-.121 1.628-.052.536-.029.549-.067 1.063-.023.539-.016.527-.022.538-.047 1.582-.005.534-.009.516-.007.839.309-.179.462-.254z" fill="#080808"/><path d="M219.72 302.267l-2.199-1.345-1.714-1.11-.411-.282-.428-.277-.411-.282-.421-.288-.411-.282-.404-.293-.41-.282-.404-.293-.392-.286-.404-.293-.386-.297-.403-.293-1.543-1.189-.375-.29-.379-.309-.374-.29-.379-.309-.357-.294-.378-.309-.35-.306-.368-.301-.361-.313-.349-.306-.368-.301-.343-.317-.7-.612-.331-.311-.35-.305-.343-.318-.995-.93-.325-.322-.332-.31-.325-.321-.32-.304-.325-.321-1.255-1.259-.296-.318-.313-.315-.592-.638-.303-.308-.887-.956-.278-.324-.295-.319-.285-.312-.278-.323-.284-.312-.278-.323-.267-.317-.277-.323-.267-.316-.278-.324-.8-.949-.255-.31-.26-.327-.255-.31-.249-.32-.266-.317-.249-.321-.237-.314-.256-.309-.249-.321-.474-.628-.249-.321-.712-.941-.22-.319-.237-.314-.227-.307-.219-.318-.453-.614-.219-.319-.226-.307-.22-.318-.215-.3-.219-.318-.209-.312-.053-.063-.04-.01-.379-.032-.368-.025-1.137-.098-.39-.039-.372-.043-.39-.04-.379-.032-.391-.039-.383-.051-.78-.078-.383-.05-.402-.046-.383-.051-.401-.046-.789-.114-.401-.046-.789-.115-.812-.128-.394-.057-.811-.128-.417-.071-.399-.075-.417-.071-.399-.075-.833-.142-.82-.164-.421-.089-.41-.082-2.106-.444-.414-.1-.432-.096-.851-.213-.433-.096-.851-.214-.436-.113-.419-.118-.873-.228-.86-.249-.436-.114-.882-.263-.43-.125-.434-.143-.441-.132-.445-.149-.441-.132-.434-.143-1.336-.449-.439-.16-.445-.15-.439-.161-1.348-.503-.439-.161-.45-.167-.454-.186-.442-.179-.454-.185-.45-.168-.447-.197-.454-.185-.447-.197-.454-.186-.458-.203-.448-.197-.458-.204-.44-.208-.458-.203-1.355-.645-.456-.232-.451-.215-.912-.466-.444-.226-.467-.239-.449-.244-.456-.233-.449-.244-.46-.251-.442-.255-.461-.25-.453-.262-.275-.153.007.265.002.523.014.529.002.523.04 1.59.074 1.609.032.525.036.544.024.536.043.533.047.55.042.532.047.55.108 1.078.058.557.195 1.638.076.552.065.546.094.549.152 1.105.094.548.087.56.106.555.087.56.21 1.11.117.562.105.555.116.562.124.551.116.562.134.558.128.568.269 1.116.437 1.693.163.56.146.565.163.56.157.571.175.567.163.56.182.556.174.567.193.563.175.567.385 1.125.204.57.193.562.21.559.204.569.444 1.13.211.559.233.572.228.554.222.565.24.561.251.567.247.55.24.561.251.567.515 1.113.269.563.276.553.269.563.552 1.104.287.559.294.548.287.559.293.548.305.554.312.544.305.554.312.544.323.55.312.544.659 1.078.334.557.337.528.341.546 1.043 1.604.359.542 1.097 1.591.373.519.768 1.053.073.106.332.034.645.073.653.061 1.924.165.637.037.648.043.637.037.644.026.625.03.644.026.633.018.639.008.633.019.64.008 1.256.001.635-.01.629.001 1.248-.035.631-.028.624-.017.63-.028 1.24-.071.626-.046.609-.042 2.461-.212.604-.06 1.222-.142.6-.078.611-.072.606-.089.6-.078.596-.096.588-.084.614-.101.584-.102.596-.096.584-.103 1.182-.228.58-.121.591-.113.58-.121 1.725-.387 1.151-.278 2.258-.582.56-.164.554-.152 1.12-.327 2.196-.682 1.076-.354.544-.188.538-.177 1.067-.391.527-.184 2.611-1.01.518-.22 1.023-.418.507-.227.5-.215.506-.227.5-.216.496-.233.5-.216.485-.241.495-.233.485-.241.489-.222.473-.247.969-.481.947-.495.462-.254.473-.248 1.387-.762.902-.522.092-.051-.212-.129-.895-.517zM299.123 167.639l-.005.534-.026 1.549-.02.509-.009.516-.02.509-.038.514-.02.509-.125 2.01-.038.513-.127 1.487-.054.489-.042.495-.054.489-.06.5-.065.482-.053.488-.259 1.928-.076.475-.069.464-.227 1.425-.087.469-.069.464-.087.468-.098.461-.081.457-.098.462-.08.457-.098.461-.103.444-.091.45-.109.455-.092.45-.205.887-.113.437-.103.443-.454 1.747-.107.425-.125.43-.107.425-.25.86-.118.418-.129.412-.118.419-.129.412-.136.423-.258.823-.123.401-.14.405-.129.412-.14.405-.267.787-.141.405-.144.387-.134.394-.151.398-.145.387-.133.394-.145.387-.149.369-.289.774-.149.369-.145.387-.298.738-.156.38-.16.362-.298.738-.16.363-.142.357-.321.725-.306.702-.16.362-.154.351-.164.344-.154.351-.164.344-.153.351-.165.345-.158.333-.164.344-.101.214.119.257.166.332.634 1.369.163.361.159.342.152.354.163.36.159.343.156.371.152.354.163.36.152.354.145.365.468 1.114.145.365.312.743.139.376.298.766.138.376.299.765.143.394.149.383.285.788.125.398.285.788.678 2.025.129.416.124.399.258.832.122.428.129.416.122.427.129.416.111.421.244.855.115.438.104.432.122.428.115.438.534 2.213.397 1.807.272 1.363.094.472.091.454.167.93.077.477.083.465.077.476.065.47.154.952.065.47.07.488.059.48.07.488.059.481.052.491.058.481.052.492.046.503.103.984.045.503.034.496.045.503.034.496.028.508.038.514.034.496.027.508.02.518.016.501.041 1.037.009.512.002.522.02.519.005 1.046.323-.202.451-.261.457-.272.44-.268.458-.272.447-.279.453-.29.447-.279 1.361-.87.442-.297.449-.308.442-.297.899-.616.438-.315.445-.326.449-.309.445-.326.433-.333.445-.326.441-.344.445-.326.44-.344.429-.351.881-.688.43-.351.872-.724.425-.369.436-.362.425-.369.432-.38.425-.369.421-.387.432-.38.841-.774.416-.405.421-.386 1.249-1.215.412-.423.416-.405.406-.412.412-.422 1.603-1.719.408-.441.389-.437.793-.895.386-.454.396-.448.386-.455.381-.472.385-.455 1.143-1.417 1.109-1.438.377-.491.359-.486.365-.497.359-.486 1.063-1.513.343-.511.361-.515.344-.511.332-.518.35-.522.671-1.047 1.31-2.143.633-1.085.618-1.11.323-.554.294-.556.313-.561.294-.556.29-.574.301-.568.29-.574.271-.57.29-.574.558-1.162.267-.588.279-.581.256-.595.268-.588-.247-.55-.255-.585-.273-.582-.278-.599-.273-.581-.281-.57-.291-.577-.28-.57-.291-.577-1.193-2.263-.61-1.11-.312-.543-.323-.55-.311-.544-.323-.55-.33-.539-.319-.533-.33-.539-.673-1.056-.325-.521-.355-.523-.687-1.034-1.401-2.023-.368-.501-.714-.989-.375-.49-.728-.967-.382-.479-.371-.472-.382-.479-.37-.472-.389-.468-.378-.461-.389-.467-.384-.45-.396-.457-.384-.45-.402-.445-.392-.439-.402-.445-.391-.439-.409-.434-.398-.428-.41-.434-.405-.417-.416-.423-.809-.832-.423-.412-.824-.811-.837-.788-.429-.401-.419-.394-1.701-1.531-.421-.365-.865-.743-.439-.361-.428-.354-.439-.36-.428-.354-.445-.349-1.304-1.028-.453-.338-.883-.663-.43-.324-1.345-.961-.438-.313-.455-.309-.437-.314-.444-.302-.462-.298-.444-.302-1.341-.866-.458-.28-.451-.291-.904-.553-.453-.262-.447-.273-.453-.262-.364-.208-.003.03.003.522zM221.53 122.359l.446.273.454.262.881.54.429.277.435.266 1.714 1.11.411.282.421.288 1.642 1.127 1.212.879.392.286.386.297.403.293 1.157.892.375.29.379.309.386.297 1.47 1.206.361.313.368.302.699.611.361.313 1.049.918.332.31.343.317.339.299.343.317.324.322.664.62.325.322.32.303.325.321 1.255 1.259.307.326.303.307.313.315 1.775 1.913.569.625.289.33.285.312.266.316.278.323.285.313.266.316.278.323.533.633.26.328.267.316.255.31.26.327.255.31.249.321.255.309.497.642.256.309.237.314.249.321.95 1.256.23.325.227.307.237.314.226.307.22.318.226.307.22.319.226.307.219.318.215.3.22.319.215.3.177.262.204.017.368.026 1.137.097.372.044.379.032.39.039.379.033.39.039.384.05.78.079.383.05.39.039.395.057.39.04.789.114.401.046.789.114.406.064.394.058 2.028.32.41.082.406.064.417.071.82.164.417.071.41.082.842.177.41.082 1.263.267.426.107.421.089.425.106.432.096 1.702.427.437.114.425.107.43.125.437.113.43.125.441.132.436.114.43.124.441.132.434.143.882.263.434.143.445.15.435.142 1.781.599.438.161.45.167.445.15.45.168.443.179.899.335.443.179.454.185.442.179 1.362.557.895.393.458.204.447.197.458.203.441.208.458.204.451.215.463.221.451.215.445.226.463.222.456.232.444.226.456.233.449.244.467.24.898.487.46.251.442.255.46.251.454.262.089.055-.005-.494-.004-1.046-.014-.53-.02-.518-.014-.53-.024-.536-.014-.53-.049-1.073-.042-.532-.025-.537-.036-.543-.042-.533-.047-.55-.043-.532-.047-.55-.054-.539-.065-.546-.053-.539-.07-.564-.13-1.092-.076-.552-.083-.542-.152-1.105-.087-.56-.188-1.096-.087-.56-.316-1.665-.117-.562-.105-.555-.116-.562-.379-1.689-.403-1.673-.437-1.693-.163-.561-.157-.571-.49-1.68-.525-1.701-.963-2.814-.204-.569-.211-.558-.203-.57-.666-1.695-.229-.554-.222-.565-.959-2.244-.258-.556-.251-.568-.258-.556-.269-.563-.257-.557-.828-1.656-.861-1.677-.587-1.096-.305-.554-.312-.544-.305-.554-.323-.551-.312-.543-.33-.539-.323-.551-.659-1.078-.341-.546-1.044-1.604-.358-.542-.355-.523-.732-1.061-.377-.538-.372-.519-.377-.537-.3-.413-.076-.001-.645-.073-.653-.061-.634-.066-.642-.055-.648-.044-.641-.055-1.274-.073-.644-.026-.637-.037-.644-.025-1.265-.038-.64-.008-.632-.019h-.629l-.646.003-.628-.001-.624.017-.629-.001-.624.018-.63.028-.624.017-.631.028-1.859.106-.609.042-.626.046-1.846.159-.604.06-1.833.214-1.2.156-.607.089-.599.078-2.382.383-.591.114-.585.103-1.182.228-2.32.483-1.151.277-.569.128-.565.145-.575.139-.572.157-.564.145-.553.153-.561.163-.553.153-.56.163-.549.171-.56.163-.549.171-.538.177-.549.17-.538.177-.545.189-.526.184-.545.188-.533.195-.527.184-.522.202-.534.196-1.045.404-.511.208-.522.202-.518.22-.511.209-.5.216-.507.227-.5.215-.507.227-.5.216-.991.467-.489.223-.485.24-.495.234-.485.24-.477.23-2.367 1.236-1.387.763-.451.261-.462.254-.273.17.398.228.442.255zM280.909 314.358l.379-.519.368-.527.357-.533.375-.538.713-1.066 1.031-1.609 1.331-2.177.956-1.639.916-1.648.589-1.113.287-.545.294-.556.553-1.104.283-.563.795-1.677.247-.554.265-.559.247-.554.243-.573.247-.554.236-.561.225-.568.235-.562.225-.568.218-.557.225-.568.218-.557.62-1.691.391-1.141.378-1.119.184-.577.171-.555.189-.56.166-.573.171-.555.166-.573.319-1.124.149-.568.142-.558.159-.562.131-.564.141-.558.137-.575.135-.547.12-.571.123-.553.131-.565.337-1.68.106-.549.101-.567.106-.548.189-1.112.076-.551.095-.556.306-2.206.069-.54.066-.558.175-1.641.052-.536.04-.543.059-.547.04-.543.034-.531.04-.543.068-1.063.067-1.615.063-2.109.005-.534-.003-.523.009-.516-.128.06-.902.522-.462.254-.445.25-1.821.971-.897.464-.46.225-.448.232-.453.214-.46.225-1.359.641-.446.203-.452.214-.458.196-.446.202-.457.196-.439.192-.457.195-1.351.554-.444.174-.45.185-.444.173-.455.167-.443.173-.437.163-.455.166-.447.156-.437.162-.896.311-1.323.433-.43.152-.441.144-.452.137-1.737.533-.439.116-.434.133-.439.115-.427.122-.439.115-.427.122-.432.104-.42.111-.432.104-.421.111-1.709.412-.418.082-.413.099-.85.186-.418.082-.407.088-1.254.246-.412.07-.407.089-1.233.211-.401.078-.411.07-.809.119-.393.066-.809.119-.393.066-.398.049-.404.059-.398.048-.386.055-.398.049-.386.055-.391.037-.398.048-.379.044-.391.037-.38.044-.397.048-.373.033-.38.044-.39.037-.746.065-.391.037-.373.033-.365.022-.178.014-.189.283-.22.31-.209.317-1.102 1.55-.227.322-.231.303-.454.642-.239.315-.231.303-.477.629-.245.325-.476.629-.257.319-.238.314-.513.638-.238.314-.512.637-.268.312-.263.33-.267.312-.257.319-.274.323-.267.312-.549.646-.285.316-.268.312-.571.633-.281.334-.285.316-.297.309-.292.328-.285.316-.304.321-.297.309-.91.962-.629.627-.303.321-.63.627-.325.307-.322.325-.325.307-.333.318-.326.307-.665.636-.344.311-.337.3-.332.318-.355.305-.344.311-.35.323-1.065.913-.362.315-.732.596-.362.315-.366.298-.384.302-.366.297-.768.604-.377.291-.384.302-.791.59-.384.302-.399.277-.395.295-2.032 1.442-1.253.844-.435.286-.418.281-.857.549-.44.268-.429.275-1.319.803-.458.272-.451.261-.359.21.241.133.454.262.471.257.453.262.46.251.472.257.467.24.471.258.467.239.478.247.485.235.478.246 1.455.706.503.231.984.448.503.231.491.224 1.02.44.498.213 2.067.834.523.197.517.209.523.197.542.193.53.187.524.197.548.182.53.186.537.175.548.182.537.175.549.182.544.164 1.11.342.55.153 1.124.319.558.142.562.159.568.149.565.13.569.148 1.151.275.582.126.571.119 1.747.379.578.108.596.104.59.115.585.097 1.192.207.591.086.603.093.61.081.592.086.609.081.599.075.605.064.61.081.612.052.617.071 1.836.157.619.041.612.052.626.03.619.041.626.03.615.023 1.265.038.615.023.639.008 2.513.003.636-.01.642-.021.635-.011.63-.028 1.284-.043 1.913-.118 1.934-.152.64-.069.651-.062.64-.068.119-.02.273-.37.386-.531zM367.267 130.263l.236.837.667 2.487.423 1.663.193.847.201.834.188.826.539 2.517.316 1.689.435 2.508.137.85.132.828.123.841.116.855.11.833.102.846.097.826.102.846.081.852.076.83.089.838.067.844.055.835.067.844.033.84.054.836.046.849.041.827.012.846.059 2.497-.004 1.675.006.825-.015.829-.023.843-.015.829-.028.822-.037.834-.049.827-.042.813-.099 1.653-.063.819-.071.831-.076.811-.085.823-.076.81-.293 2.447-.103.794-.119.821-.111.807-.248 1.598-.132.813-.138.791-.145.804-.138.791-.158.797-.172.788-.151.783-.344 1.576-.742 3.12-.198.772-.212.764-.199.772-.22.777-.225.756-.212.763-.225.756-.247.761-.225.756-.251.739-.239.748-.26.752-.251.74-.26.753-.53 1.462-.278.723-.273.745-.279.723-.291.715-.3.729-.583 1.43-.609 1.414-.008.013.023.051.309.718.317.704.295.709.575 1.446.295.709.279.736.288.723.279.736.258.741.265.728.258.741.271.749.237.746.258.741.249.755.229.759.236.747.457 1.519.22.773.621 2.294.596 2.333.532 2.35.334 1.571.156.788.148.802.156.788.148.802.134.793.14.815.135.793.105.812.126.807.114.799.21 1.623.084.817.105.812.084.817.07.809.076.83.07.809.063.822.054.836.062.822.123 2.482.028.819.059 2.497-.002.838.006.824-.001.838-.015.829-.024.843-.015.83-.023.842-.073 1.67-.044.848-.174 2.519-.071.832-.066.853-.171 1.682-.185 1.673-.114.842-.101.85-.127.834-.114.842-.127.834-.135.847-.148.839-.128.834-.156.852-.324 1.662-.34 1.689-.183.836-.196.828-.183.836-.205.841-.196.828-.654 2.499-.239.839-.231.825-.252.83-.232.825-.177.529.646-.699.579-.648.571-.636.579-.648 1.131-1.314.553-.665.56-.678.553-.665.539-.673.547-.686.526-.681.548-.686.521-.703.534-.694.512-.69 1.015-1.421.516-.724 1.483-2.156.962-1.454.943-1.483.463-.756.468-.735.449-.764.455-.744.449-.764 1.728-3.064.414-.767.819-1.578.402-.775.396-.797.388-.784.396-.797.375-.792.37-.813.375-.791.37-.814.696-1.616.357-.821.67-1.632.643-1.649.33-.837.617-1.665.287-.827.309-.832.564-1.697.273-.836.063-.162.261-.843.268-.857.261-.843.247-.852.234-.86.248-.851.234-.86.662-2.603.199-.863.208-.875.199-.863.373-1.742.345-1.757.165-.866.16-.887.151-.873.146-.896.152-.873.117-.877.138-.882.112-.898.116-.876.112-.898.104-.885.082-.88.18-1.786.069-.887.077-.901.061-.875.111-1.791.042-.904.069-1.782.021-.899.013-.885.021-.899-.002-2.681-.021-.888-.014-.902-.022-.889-.035-.896-.056-.892-.035-.896-.17-2.675-.155-1.772-.274-2.683-.099-.882-.113-.889-.12-.876-.126-.897-.12-.876-.134-.884-.156-.879-.134-.884-.155-.879-.168-.887-.164-.866-.353-1.748-.19-.882-.594-2.606-.219-.863-.207-.855-.219-.864-.233-.872-.722-2.575-.249-.845-.524-1.706-.271-.84-.567-1.696-.583-1.67-.305-.842-.3-.822-.313-.83-.326-.837-.322-.817-1.003-2.473-.351-.798-.711-1.639-.364-.806-.372-.792-.386-.801-.372-.793-.385-.801-.787-1.575-.407-.796-.401-.774-.415-.783-.846-1.538-.436-.777-.431-.756-.889-1.528-.905-1.502-.46-.737-.466-.759-.482-.733-.461-.737-.482-.732-.49-.72-.495-.74-.49-.719-.511-.714-.499-.706-.511-.714-1.559-2.102-1.055-1.374-.541-.696-.549-.682-.544-.661-.549-.682-.557-.669-2.262-2.623-.573-.642-.595-.638-.573-.642-.103-.1.187.589.487 1.647zM223.591 44.616l1.666.435 2.475.694.83.252 1.634.489.822.265.809.258.814.28.8.27.814.279 1.612.584.792.285.798.305.789.319.798.305.768.325.79.318 1.563.664 2.32 1.037 2.296 1.075.743.364.757.372 2.247 1.156.728.39 1.482.797.719.403.725.425.733.412 1.436.842 1.406.86 2.794 1.782 1.374.913 2.037 1.41.671.483.657.475.671.483 1.299.977.655.51.649.488.641.502 1.267 1.03.62.506.633.515.612.52.625.528 2.414 2.133.596.547.582.538.588.56.574.552.587.56.574.552.567.565.552.556.566.566.545.57.558.578.537.583.544.57.537.584.528.597.524.575.515.588.528.597.515.589.508.602.493.593.499.615.494.594.971 1.214.956 1.24.928 1.225.47.633.095.113.677.086 1.535.173.772.108.76.1.772.108.778.13.765.12.778.13.764.12 2.309.429 2.325.492.762.155.78.186.767.177.78.185.758.19 2.316.597.777.22.764.212 3.076.933.76.246.775.255.76.246 2.298.804 1.516.563.75.294.771.29.75.294.755.316.763.302.747.33.755.315 1.493.658.76.338.739.342.752.351.744.363.73.356.744.364 2.207 1.131.741.398.736.377 2.904 1.631 1.436.842 2.137 1.306 2.125 1.355 1.401.929 2.076 1.434.697.5 1.369.982.676.505.667.518.69.513.668.517.659.532.668.517.665.553.66.531 1.303 1.089.657.566 1.287 1.115.635.571.627.584.636.571.627.584.619.598.627.584.619.597 1.223 1.222.597.602 1.206 1.248.582.629.499.525-.07-.244-.53-1.637-.278-.826-.265-.819-.287-.813-.6-1.643-.286-.814-.308-.808-.321-.816-.33-.803-.321-.817-.658-1.606-1.052-2.393-.364-.806-.359-.785-.372-.793-.38-.779-1.181-2.363-.803-1.549-.415-.782-1.269-2.308-.431-.756-.888-1.528-.453-.751-.466-.759-.46-.737-1.422-2.237-.482-.732-.495-.74-1.51-2.182-.511-.714-.525-.722-.511-.714-1.066-1.418-.541-.695-.533-.709-.562-.69-.554-.704-.55-.682-.57-.677-.562-.69-.592-.672-.571-.678-.578-.663-.592-.672-1.8-1.976-.608-.646-.616-.632-.622-.653-.616-.632-1.275-1.254-.624-.62-.638-.626-.645-.614-.654-.6-.667-.609-.654-.6-.662-.587-1.35-1.19-.67-.575-.684-.582-1.383-1.137-.678-.56-.699-.556-.708-.543-.713-.563-.707-.542-2.148-1.587-.737-.524-.724-.516-2.209-1.515-1.493-.986-2.272-1.444-1.512-.925-1.556-.915-2.331-1.316-2.355-1.277-.789-.409-.81-.404-1.594-.793-.818-.39-1.61-.767-1.626-.74-1.643-.712-.816-.335-1.659-.686-.837-.33-1.649-.644-.845-.316-.841-.296-.832-.308-.849-.282-.84-.295-.849-.282-.856-.27-.849-.281-.843-.26-.865-.256-1.703-.495-1.72-.468-1.735-.441-.855-.213-.876-.208-.854-.212-2.612-.558-.879-.173-.858-.178-.873-.152-.887-.16-1.748-.302-.868-.13-.882-.139-2.63-.35-1.769-.207-.872-.096-2.639-.246-.887-.069-.875-.06-3.53-.19-1.755-.053-1.771-.026-.872-.004-3.522.034-1.75.06-.884.043-.87.051-.883.043-.87.052-.865.072-.878.065-.865.073-1.746.172-.86.093-.881.1-.86.094-.863.129-.854.115-.876.12-.85.138-.862.128-.85.137-1.715.3-.852.172-.845.158-1.705.343-.847.193-.839.18-.128.03.431.1 2.524.614zM75.577 127.431l.606-.632 1.195-1.239.61-.611.603-.597.624-.603.611-.611.63-.582.615-.59 1.258-1.163.643-.573.634-.56.643-.574.647-.552.656-.565.64-.539 1.32-1.087.667-.523.66-.544.667-.522 1.358-1.029.671-.501.68-.515 1.368-.986.698-.485.676-.48.712-.476.69-.472 2.108-1.391 2.124-1.326 1.442-.868 1.426-.842 1.453-.825.719-.399.739-.405.732-.391.737-.37.731-.391 2.21-1.11.75-.362 1.484-.697.755-.34.734-.335.755-.34.76-.32.747-.327.753-.306.76-.319.752-.305.766-.298 3.029-1.137.763-.263.77-.276.755-.25.762-.263.776-.255 1.535-.483.76-.228 1.545-.44.76-.229.778-.199.773-.22 1.534-.392 2.31-.557 1.55-.328.761-.173.775-.164.78-.142.767-.151.772-.13.767-.15 1.544-.26.764-.116.777-.108.764-.116.778-.108 1.538-.19.761-.082.296-.037.41-.552.464-.61.944-1.245.464-.61.486-.614.49-.594.486-.614.997-1.214.512-.598.504-.585.512-.6 2.1-2.36.531-.57.552-.574.538-.582.552-.574 2.26-2.265.57-.544 1.156-1.116.592-.55.583-.537.605-.541.597-.529.605-.542.618-.533.61-.52.618-.534.61-.52.623-.513.645-.517.623-.512.65-.496.636-.504 1.949-1.488 1.326-.976.669-.467.676-.48.668-.466.682-.458.676-.48.695-.45.681-.459.695-.45.708-.442.695-.45.713-.421.708-.442 2.139-1.263 1.453-.825 1.479-.809.732-.391.74-.405 1.489-.766.758-.375.75-.362.759-.375 1.526-.707.772-.367.768-.332 1.553-.691.782-.325.768-.332 1.59-.632.782-.324.8-.295.787-.303.8-.294.813-.287.792-.281.814-.287.805-.273 1.637-.53.81-.252.832-.257 1.648-.488.815-.23.829-.222.837-.236 2.505-.638.834-.2.719-.163-.405-.083-.849-.191-.845-.17-.857-.178-1.688-.34-.861-.143-.852-.157-1.721-.287-.855-.122-.869-.13-.855-.122-2.59-.326-.872-.095-.858-.088-.879-.082-.867-.074-.879-.082-.867-.074-.882-.047-.861-.053-.883-.048-1.739-.078-.89-.035-.873-.004-.877-.026-.886-.013-.872-.005-2.641.026-.888.021-.876.03-.883.043-.875.03-.892.057-.87.051-.891.057-1.757.129-.873.086-.886.078-2.643.297-.876.12-.882.1-.884.134-.862.129-.884.133-1.742.285-1.758.31-2.622.53-.86.185-2.606.594-.855.206-1.727.439-.872.233-1.717.481-.845.249-.866.254-.845.249-.848.284-.853.262-1.697.567-.834.292-.848.283-.83.313-.843.305-.838.327-.829.313-.838.326-.824.334-.833.348-.811.343-.833.347-.819.356-.806.364-.814.377-.828.37-2.402 1.156-.809.398-1.592.814-.782.414-2.372 1.285-.777.436-.764.444-.786.45-.772.457-.759.466-.772.458-.759.465-1.507.975-.746.473-.74.496-.749.508-.74.495-.736.517-.727.503-.735.517-.722.525-.717.546-.722.525-.709.532-2.814 2.217-.677.57-.691.563-.685.584-.677.57-.685.584-.672.592-.651.587-.658.6-.667.613-.659.6-.645.608-.64.63-.646.607-.64.63-.619.624-1.254 1.275-1.227 1.292-1.801 1.961-.588.662-.595.675-1.148 1.34-.582.683-.56.679-.569.691-.547.686-.556.7-.547.686-.542.708-.53.715-.533.695-.53.716-1.03 1.447-.508.711-1.507 2.196-.481.727-.476.748-.49.74-.462.757-.468.734-.916 1.5-.9 1.529-1.291 2.291-.837 1.548-.803 1.551-.41.789-1.164 2.351-.375.792-.361.799-.367.779-.349.808-.361.8-.68 1.589-.335.816-.654 1.606-.628 1.622-.6 1.638-.293.806-.287.827-.279.814-.274.835-.279.814-.252.83-.242.783.178-.202.584-.627z" fill="#080808"/></svg>